<svg xmlns="http://www.w3.org/2000/svg" xml:space="preserve" id="boy-ordering-junk-food-online" x="0" y="0" style="enable-background:new 0 0 850 850" version="1.1" viewBox="0 0 850 850">
  <g>
    <g>
      <g>
        <path d="M451.3,295.5c4.7-13.1,17.1-21.9,30.9-21.1c8,0.5,17,2.6,26.1,8.1c28.1,17,91.1,72.6,85.8,154.3
				c-5.2,78.6-5.4,138.3-103.7,134.2c-11.8-0.5-23.7-0.7-35.5-0.8c-43.9-0.3-139-3-184.2-19.2c-38.3-13.7-27.6-42.5-14.9-61.4
				c18.6-27.6,21.8-62.9,7.5-93c-0.7-1.4-1.3-2.8-2.1-4.2c-23.2-45.1,38.4-89.8,104.1-71.5C418.3,325.6,444.1,315.6,451.3,295.5z" style="fill:#f4f4f4"></path>
      </g>
      <g>
        <path d="M609.9,283.5c-2.2-2.7-13.8-4.4-17-4c-3.1,0.4-8.6-6.4-11.7-8s-4.8,3.3-8.6,5.2c-3.8,2-8-7.2-15.7-11.1
				c-7.7-3.9-13,17.9-13,17.9H609.9z" style="fill:#f4f4f4"></path>
      </g>
      <g>
        <path d="M389.3,283.5c-2.2-2.7-13.8-4.4-17-4c-3.1,0.4-8.6-6.4-11.7-8s-4.8,3.3-8.6,5.2c-3.8,2-8-7.2-15.7-11.1
				c-7.7-3.9-13,17.9-13,17.9H389.3z" style="fill:#f4f4f4"></path>
      </g>
      <g>
        <path d="M527,343.8c-2.2-2.7-13.8-4.4-17-4c-3.1,0.4-8.6-6.4-11.7-8s-4.8,3.3-8.6,5.2c-3.8,2-8-7.2-15.7-11.1
				c-7.7-3.9-13,17.9-13,17.9H527z" style="fill:#fff"></path>
      </g>
      <g>
        <path d="M295.7,364.5c0,0,10.9-16.8,21.3-12.8c10.4,4.1,24,12.9,32.7,10.7c8.7-2.2,18.4-9.1,24.1-7.4
				c5.7,1.7,15.6,9.5,15.6,9.5H295" style="fill:#fff"></path>
      </g>
    </g>
    <g>
      <g>
        <g>
          <ellipse cx="604.3" cy="593.3" rx="56.3" ry="5.3" style="fill:#f4f4f4"></ellipse>
        </g>
        <g>
          <g>
            <g>
              <path d="M581.1,364.6c-3.2,3.1-14.7,4-14.9,2.6c-0.2-1.4,3.4-2.4,3.4-2.4s-4.1,1.3-4.7-0.1
							c-0.5-1.4,3.8-1.9,3.8-1.9s-4.9,0.8-4.7-0.8c0.2-1.6,5.5-1.8,5.5-1.8s-13.8,1.3-13.6-1.4c0.3-2.7,14.7-1.3,14.7-1.3
							s-6.2-2.1-4.5-3.7c1.8-1.5,14,4.3,14,4.3C581.2,360.1,581.6,362.3,581.1,364.6z" style="fill:#fff"></path>
              <path d="M569.1,368.1c-1.1,0-1.9-0.1-2.5-0.3c-0.4-0.1-0.7-0.4-0.7-0.6c-0.1-0.6,0.4-1.2,1-1.6
							c-1,0.1-2-0.1-2.3-0.9c-0.1-0.3-0.1-0.6,0.1-0.8c0.2-0.3,0.5-0.5,1-0.7c-0.7-0.1-1.4-0.2-1.7-0.5c-0.2-0.2-0.3-0.5-0.3-0.8
							c0.1-0.5,0.5-0.9,1.1-1.2c-3.5,0.1-7.7,0-8.8-1.2c-0.2-0.2-0.4-0.5-0.3-0.9c0-0.3,0.2-0.6,0.5-0.8c1.8-1.5,9-1.2,12.6-0.9
							c-1.3-0.6-2.9-1.5-3.1-2.4c-0.1-0.3,0-0.6,0.4-1c1.8-1.6,12.3,3.2,14.3,4.2c0.1,0,0.1,0.1,0.1,0.2c1,2.4,1.3,4.6,0.9,6.8
							c0,0.1,0,0.1-0.1,0.2C579,366.9,572.9,368.1,569.1,368.1z M566.5,367.1c0,0,0.1,0.2,0.8,0.3c2.9,0.5,10.9-0.5,13.6-2.9
							c0.4-2,0.1-4.1-0.8-6.3c-4.7-2.2-12.4-5.3-13.6-4.3c-0.2,0.2-0.2,0.3-0.2,0.4c0.2,0.9,2.9,2.1,4.6,2.7c0.1,0,0.2,0.2,0.2,0.4
							c0,0.1-0.2,0.3-0.3,0.2c-3.3-0.3-12.4-0.9-14.2,0.6c-0.2,0.1-0.2,0.3-0.2,0.4c0,0.1,0,0.2,0.2,0.4c1.2,1.2,7.6,1.1,11.4,0.8
							c0.8-0.1,1.4-0.1,1.7-0.1c0.2,0,0.3,0.1,0.3,0.3c0,0.2-0.1,0.3-0.3,0.3c-0.2,0-0.8,0.1-1.6,0.1c-1.8,0.2-3.5,0.7-3.6,1.4
							c0,0.1,0,0.2,0.1,0.3c0.5,0.5,2.5,0.4,3.8,0.3c0.2,0,0.4-0.1,0.5-0.1c0.2,0,0.3,0.1,0.3,0.3c0,0.2-0.1,0.3-0.3,0.3
							c-0.1,0-0.2,0-0.5,0.1c-1.2,0.2-2.7,0.6-3.1,1.2c-0.1,0.1-0.1,0.2,0,0.3c0.3,0.7,2.4,0.5,4,0c0.2,0,0.3-0.1,0.3-0.1
							c0.2,0,0.3,0,0.4,0.2c0,0.2,0,0.3-0.2,0.4c-0.1,0-0.2,0.1-0.3,0.1C568.2,365.5,566.4,366.3,566.5,367.1L566.5,367.1z
							 M581.1,364.6L581.1,364.6L581.1,364.6z" style="fill:#3e414e"></path>
            </g>
            <g>
              <path d="M543,315.7c-4.5-0.1-13.2-7.6-12.4-8.7s4.1,0.7,4.1,0.7s-3.9-2-3.2-3.4c0.6-1.4,4.1,1.3,4.1,1.3
							s-4-2.9-2.7-3.9c1.3-1,5.2,2.6,5.2,2.6s-10.7-8.9-8.6-10.6c2.1-1.7,11.3,9.5,11.3,9.5s-2.9-5.9-0.6-5.8
							c2.3,0.2,6.9,12.9,6.9,12.9C546.2,312.6,544.9,314.4,543,315.7z" style="fill:#fff"></path>
              <path d="M543,316C543,316,543,316,543,316c-4-0.1-11.4-5.9-12.6-8.3c-0.2-0.4-0.2-0.7,0-0.9
							c0.4-0.5,1.1-0.6,1.9-0.4c-0.8-0.7-1.3-1.5-1-2.2c0.1-0.3,0.4-0.5,0.7-0.5c0.3-0.1,0.8,0,1.2,0.2c-0.5-0.5-0.8-1.1-0.8-1.6
							c0-0.3,0.1-0.6,0.4-0.8c0.4-0.3,1-0.3,1.6-0.1c-2.5-2.4-5.4-5.5-5.4-7.1c0-0.3,0.1-0.6,0.4-0.8c0.2-0.2,0.5-0.3,0.9-0.2
							c2.3,0.2,7.2,5.6,9.5,8.3c-0.5-1.4-1-3.1-0.5-3.9c0.1-0.2,0.4-0.5,1-0.4c2.4,0.2,6.4,11,7.1,13.1c0,0.1,0,0.1,0,0.2
							c-1,2.4-2.3,4.2-4.2,5.5C543.1,316,543.1,316,543,316z M530.9,307.1c0,0,0,0.2,0.3,0.7c1.7,2.4,8.1,7.3,11.7,7.5
							c1.7-1.2,3-2.8,3.8-5c-1.7-4.9-5-12.5-6.6-12.6c-0.3,0-0.4,0.1-0.5,0.2c-0.5,0.8,0.5,3.6,1.3,5.1c0.1,0.1,0,0.3-0.1,0.4
							c-0.1,0.1-0.3,0.1-0.4-0.1c-2.1-2.6-8.2-9.4-10.4-9.6c-0.2,0-0.3,0-0.5,0.1c-0.1,0.1-0.2,0.2-0.2,0.4c0,1.7,4.6,6.1,7.5,8.6
							c0.6,0.5,1.1,0.9,1.3,1.1c0.1,0.1,0.1,0.3,0,0.4s-0.3,0.1-0.4,0c-0.2-0.1-0.6-0.5-1.2-1.1c-1.4-1.1-3-2-3.6-1.5
							c-0.1,0.1-0.1,0.2-0.1,0.3c0,0.7,1.4,2,2.5,2.9c0.2,0.1,0.3,0.2,0.4,0.3c0.1,0.1,0.2,0.3,0.1,0.4c-0.1,0.1-0.3,0.2-0.4,0.1
							c-0.1,0-0.2-0.1-0.4-0.3c-1-0.7-2.4-1.5-3-1.4c-0.1,0-0.2,0.1-0.2,0.2c-0.3,0.7,1.3,2,2.8,2.8c0.1,0.1,0.2,0.1,0.3,0.2
							c0.1,0.1,0.2,0.3,0.1,0.4c-0.1,0.1-0.3,0.2-0.4,0.1c-0.1,0-0.2-0.1-0.3-0.2C533.2,307.2,531.4,306.5,530.9,307.1L530.9,307.1z
							" style="fill:#3e414e"></path>
            </g>
            <g>
              <g>
                <rect width="15.1" height="13.2" x="580.7" y="569.9" style="fill:#fff"></rect>
                <path d="M595.8,583.4h-15.1c-0.2,0-0.3-0.1-0.3-0.3v-13.2c0-0.2,0.1-0.3,0.3-0.3h15.1c0.2,0,0.3,0.1,0.3,0.3
								v13.2C596.1,583.3,596,583.4,595.8,583.4z M581,582.8h14.5v-12.6H581V582.8z" style="fill:#3e414e"></path>
              </g>
              <g>
                <path d="M565.9,595.6c5.5-0.2,14.8-4,18-3.6c2.1,0.3,8.6,0.4,12.8,0.5c2.1,0,3.9-1.7,3.8-3.8
								c0-1.2-0.1-2.5-0.2-3.9c-0.2-2.3-0.6-4.8-1.2-6.8c-0.3-0.8-0.6-1.6-1-2.3c-0.5-0.9-1.8-1.2-2.7-0.5
								c-2.3,1.8-7.3,5.1-10.1,3.8c-1.8-0.8-2.8-2.7-3.4-4.3c-0.4-1.3-2.1-1.6-3-0.7c-3,3.1-8.4,7.9-12.6,9
								c-6.2,1.5-13.2,3.8-13.5,7.1S560.4,595.8,565.9,595.6z" style="fill:#fff"></path>
                <path d="M565.3,595.9c-4.1,0-9.5-1.3-11.7-3.6c-0.7-0.7-1-1.5-0.9-2.2c0.3-2.8,4.7-5.2,13.7-7.4
								c4.2-1,9.6-6,12.5-8.9c0.5-0.5,1.3-0.7,2-0.6c0.7,0.2,1.3,0.7,1.5,1.4c0.5,1.4,1.4,3.3,3.2,4.1c2.7,1.3,7.7-2.2,9.8-3.8
								c0.5-0.4,1.1-0.5,1.7-0.4c0.6,0.1,1.1,0.5,1.4,1c0.4,0.6,0.7,1.4,1,2.3c0.6,1.8,1,4.1,1.2,6.9c0.1,1.2,0.2,2.5,0.2,3.9
								c0,1.1-0.4,2.2-1.2,2.9c-0.8,0.8-1.8,1.2-2.9,1.2c0,0,0,0-0.1,0c-7-0.1-11.2-0.3-12.8-0.5c-1.6-0.2-4.7,0.7-7.9,1.6
								c-3.4,0.9-7.2,2-10,2.1l0,0C565.7,595.9,565.5,595.9,565.3,595.9z M580.3,573.7c-0.4,0-0.8,0.2-1.1,0.4
								c-2.9,2.9-8.4,8-12.8,9c-8.6,2.1-13,4.4-13.2,6.9c-0.1,0.6,0.2,1.2,0.7,1.8c2.1,2.2,7.8,3.6,11.9,3.4l0,0
								c2.7-0.1,6.5-1.1,9.8-2c3.5-1,6.5-1.8,8.2-1.6c2.3,0.3,10.2,0.4,12.7,0.5c0.9,0,1.8-0.4,2.5-1c0.7-0.7,1-1.6,1-2.5
								c0-1.4-0.1-2.7-0.2-3.9c-0.2-2.7-0.6-5-1.2-6.7c-0.3-0.9-0.6-1.6-0.9-2.2c-0.2-0.4-0.6-0.6-1-0.7c-0.4-0.1-0.9,0-1.2,0.3
								c-2.7,2-7.5,5.2-10.4,3.9c-1.6-0.7-2.8-2.3-3.5-4.5c-0.2-0.5-0.6-0.8-1.1-1C580.6,573.7,580.5,573.7,580.3,573.7z" style="fill:#3e414e"></path>
              </g>
              <g>
                <path d="M566,590.2c-0.1,0-0.3-0.1-0.3-0.3c0-0.2,0.1-0.3,0.3-0.3l27.7-3.9c0.2,0,0.3,0.1,0.3,0.3
								c0,0.2-0.1,0.3-0.3,0.3L566,590.2C566,590.2,566,590.2,566,590.2z" style="fill:#3e414e"></path>
              </g>
              <g>
                <path d="M559.7,584.9c0.9,0.9,4.3,4.8-0.2,9.9" style="fill:#fff"></path>
                <path d="M559.5,595.1c-0.1,0-0.1,0-0.2-0.1c-0.1-0.1-0.1-0.3,0-0.4c4.2-4.9,1.2-8.5,0.2-9.5
								c-0.1-0.1-0.1-0.3,0-0.4s0.3-0.1,0.4,0c0.8,0.8,4.5,4.9-0.2,10.3C559.6,595.1,559.6,595.1,559.5,595.1z" style="fill:#3e414e"></path>
              </g>
              <g>
                <path d="M596.2,581.3c0,1.9,1.5,3.5,3.5,3.5c0.2,0,0.4,0,0.6-0.1c-0.2-2.3-0.6-4.8-1.2-6.8
								C597.5,578.1,596.2,579.6,596.2,581.3z" style="fill:#3c4150"></path>
              </g>
            </g>
            <g>
              <g>
                <rect width="15.1" height="13.2" x="632.2" y="569.9" style="fill:#fff"></rect>
                <path d="M647.4,583.4h-15.1c-0.2,0-0.3-0.1-0.3-0.3v-13.2c0-0.2,0.1-0.3,0.3-0.3h15.1c0.2,0,0.3,0.1,0.3,0.3
								v13.2C647.7,583.3,647.5,583.4,647.4,583.4z M632.6,582.8h14.5v-12.6h-14.5V582.8z" style="fill:#3e414e"></path>
              </g>
              <g>
                <path d="M617.5,595.6c5.5-0.2,14.8-4,18-3.6c2.1,0.3,8.6,0.4,12.8,0.5c2.1,0,3.9-1.7,3.8-3.8
								c0-1.2-0.1-2.5-0.2-3.9c-0.2-2.3-0.6-4.8-1.2-6.8c-0.3-0.8-0.6-1.6-1-2.3c-0.5-0.9-1.8-1.2-2.7-0.5
								c-2.3,1.8-7.3,5.1-10.1,3.8c-1.8-0.8-2.8-2.7-3.4-4.3c-0.4-1.3-2.1-1.6-3-0.7c-3,3.1-8.4,7.9-12.6,9
								c-6.2,1.5-13.2,3.8-13.5,7.1S611.9,595.8,617.5,595.6z" style="fill:#fff"></path>
                <path d="M616.8,595.9c-4.1,0-9.5-1.3-11.7-3.6c-0.7-0.7-1-1.5-0.9-2.2c0.3-2.8,4.7-5.2,13.7-7.4
								c4.2-1,9.6-6,12.5-8.9c0.5-0.5,1.3-0.7,2-0.6c0.7,0.2,1.3,0.7,1.5,1.4c0.5,1.4,1.4,3.3,3.2,4.1c2.7,1.3,7.7-2.2,9.8-3.8
								c0.5-0.4,1.1-0.5,1.7-0.4c0.6,0.1,1.1,0.5,1.4,1c0.4,0.6,0.7,1.4,1,2.3c0.6,1.8,1,4.1,1.2,6.9c0.1,1.2,0.2,2.5,0.2,3.9
								c0,1.1-0.4,2.2-1.2,2.9c-0.8,0.8-1.8,1.2-3,1.2c-7-0.1-11.2-0.3-12.8-0.5c-1.6-0.2-4.7,0.7-7.9,1.6c-3.4,0.9-7.2,2-10,2.1
								l0,0C617.3,595.9,617,595.9,616.8,595.9z M631.9,573.7c-0.4,0-0.8,0.2-1.1,0.4c-2.9,2.9-8.4,8-12.8,9
								c-8.6,2.1-13,4.4-13.2,6.9c-0.1,0.6,0.2,1.2,0.7,1.8c2.1,2.2,7.8,3.6,11.9,3.4l0,0c2.7-0.1,6.5-1.1,9.8-2
								c3.5-1,6.5-1.8,8.2-1.6c2.3,0.3,10.2,0.4,12.7,0.5c0,0,0,0,0.1,0c0.9,0,1.8-0.4,2.5-1c0.7-0.7,1-1.6,1-2.5
								c0-1.4-0.1-2.7-0.2-3.9c-0.2-2.7-0.6-5-1.2-6.7c-0.3-0.9-0.6-1.6-0.9-2.2c-0.2-0.4-0.6-0.6-1-0.7c-0.4-0.1-0.9,0-1.2,0.3
								c-2.6,2-7.5,5.2-10.4,3.9c-1.6-0.7-2.8-2.3-3.5-4.5c-0.2-0.5-0.6-0.8-1.1-1C632.1,573.7,632,573.7,631.9,573.7z" style="fill:#3e414e"></path>
              </g>
              <g>
                <path d="M617.5,590.2c-0.1,0-0.3-0.1-0.3-0.3c0-0.2,0.1-0.3,0.3-0.3l27.7-3.9c0.2,0,0.3,0.1,0.3,0.3
								c0,0.2-0.1,0.3-0.3,0.3L617.5,590.2C617.6,590.2,617.6,590.2,617.5,590.2z" style="fill:#3e414e"></path>
              </g>
              <g>
                <path d="M611.2,584.9c0.9,0.9,4.3,4.8-0.2,9.9" style="fill:#fff"></path>
                <path d="M611,595.1c-0.1,0-0.1,0-0.2-0.1c-0.1-0.1-0.1-0.3,0-0.4c4.2-4.9,1.2-8.5,0.2-9.5
								c-0.1-0.1-0.1-0.3,0-0.4s0.3-0.1,0.4,0c0.8,0.8,4.5,4.9-0.2,10.3C611.2,595.1,611.1,595.1,611,595.1z" style="fill:#3e414e"></path>
              </g>
              <g>
                <path d="M647.7,581.3c0,1.9,1.5,3.5,3.5,3.5c0.2,0,0.4,0,0.6-0.1c-0.2-2.3-0.6-4.8-1.2-6.8
								C649,578.1,647.7,579.6,647.7,581.3z" style="fill:#3c4150"></path>
              </g>
            </g>
            <g>
              <path d="M646.5,331.4c0,0,4.5,63.2,0.9,65.6c-3.6,2.4-39.7,8.9-53,0c-4-3-2.8-54,1.2-55.8" style="fill:#fff"></path>
              <path d="M616.4,401.9c-8.7,0-17.1-1.2-22.2-4.6c-3.1-2.4-3.2-30.4-1.5-46c1-9.6,2.3-10.2,2.7-10.4
							c0.2-0.1,0.3,0,0.4,0.1c0.1,0.2,0,0.3-0.1,0.4c-0.3,0.1-1.4,1.3-2.4,9.9c-1.8,16.2-1.4,43.4,1.2,45.5c13,8.7,49.1,2.3,52.7,0
							c2.6-1.7,0.8-40-1-65.4c0-0.2,0.1-0.3,0.3-0.3c0.2,0,0.3,0.1,0.3,0.3c0.5,6.5,4.4,63.4,0.7,65.9
							C645.2,398.8,630.5,401.9,616.4,401.9z" style="fill:#3e414e"></path>
            </g>
            <g>
              <path d="M621.1,340.7c0,0-1.1,1.7-5.2,5.8s-37.4,9.1-37.4,9.1V368c0,0,39.7-4.6,48.7-8.4c9-3.8,23.7-32.4,22-41.9
							c-1.7-9.5-22.9-10.1-22.9-10.1s-15.2,0-19.6,1.7c-4.4,1.7-20.9,18.8-32.1,18.2c-11.2-0.6-26.4-19.9-26.4-19.9l-10,8.1
							c0,0,21.3,31,28.8,30.2s28.6-4.6,28.6-4.6" style="fill:#fff"></path>
              <path d="M578.4,368.3c-0.1,0-0.1,0-0.2-0.1c-0.1-0.1-0.1-0.1-0.1-0.2v-12.3c0-0.1,0.1-0.3,0.3-0.3
							c0.3,0,33.2-5,37.2-9c4.1-4.1,5.2-5.7,5.2-5.8c0.1-0.1,0.3-0.2,0.4-0.1c0.1,0.1,0.2,0.3,0.1,0.4c0,0.1-1.1,1.7-5.3,5.9
							c-4,4-34,8.7-37.3,9.2v11.7c3.9-0.5,39.8-4.8,48.3-8.3c8.7-3.7,23.5-32,21.8-41.5c-1.7-9.1-22.4-9.9-22.6-9.9
							c-0.1,0-15.2,0.1-19.4,1.7c-1.3,0.5-3.7,2.4-6.8,4.8c-7,5.5-17.6,13.9-25.5,13.4c-10.7-0.6-24.6-17.5-26.4-19.8l-9.5,7.7
							c2,2.8,21.5,30.5,28.3,29.8c7.3-0.8,28.4-4.5,28.6-4.6c0.2,0,0.3,0.1,0.4,0.2c0,0.2-0.1,0.3-0.2,0.4c-0.2,0-21.3,3.8-28.6,4.6
							c-0.1,0-0.2,0-0.3,0c-7.8,0-27.9-29.1-28.7-30.3c-0.1-0.1-0.1-0.3,0.1-0.4l10-8.1c0.1-0.1,0.1-0.1,0.2-0.1
							c0.1,0,0.2,0,0.2,0.1c0.2,0.2,15.2,19.2,26.2,19.8c7.7,0.4,18.1-7.8,25.1-13.3c3.1-2.5,5.6-4.4,6.9-4.9
							c4.4-1.7,19-1.7,19.7-1.7c0.9,0,21.5,0.8,23.2,10.4c1.8,9.7-13.3,38.5-22.1,42.2C618.3,363.6,580.1,368.1,578.4,368.3
							C578.5,368.3,578.4,368.3,578.4,368.3z" style="fill:#3e414e"></path>
            </g>
            <g>
              <g>
                <path d="M646.4,397.5l4.3,173.4h-20.9L621,444.2l-22.8,126.7h-20.3L595,397.5C595,397.5,613.1,406.5,646.4,397.5
								z" style="fill:#9ec9ef"></path>
              </g>
              <g>
                <path d="M650.7,571.2h-20.9c-0.2,0-0.3-0.1-0.3-0.3l-8.5-124.2l-22.3,124.3c0,0.1-0.2,0.2-0.3,0.2h-20.3
								c-0.1,0-0.2,0-0.2-0.1c-0.1-0.1-0.1-0.1-0.1-0.2l17.1-173.4c0-0.1,0.1-0.2,0.2-0.2c0.1,0,0.2-0.1,0.3,0
								c0.2,0.1,18.3,8.8,51.1,0c0.1,0,0.2,0,0.3,0c0.1,0.1,0.1,0.1,0.1,0.2l4.3,173.4c0,0.1,0,0.2-0.1,0.2
								C650.8,571.2,650.7,571.2,650.7,571.2z M630,570.6h20.3l-4.3-172.7c-30.2,8-48,1.3-50.8,0.1l-17,172.6H598l22.7-126.4
								c0-0.2,0.2-0.3,0.3-0.2c0.2,0,0.3,0.1,0.3,0.3L630,570.6z" style="fill:#3e414e"></path>
              </g>
            </g>
            <g>
              <path d="M646.4,397.5c0,0-9.5,2.7-16.3,3.4c-6.7,0.7,1.4,28.5,5.5,31.4c4.1,2.8,7.6,35.8,1.3,44.7s-3.9,39,1,45.5
							c4.9,6.5-9.1,36.3-9.1,36.3l0.8,12.1h20.9L646.4,397.5z" style="fill:#77b6e5"></path>
            </g>
            <g>
              <path d="M606.6,401.1c0,0-6.8-1.2-11.4-3.3l-17.3,173.1h20.3c0,0-7.1-13.4-4.5-23.3c2.6-9.9,10.4-37.7,4.5-48.8
							s3.3-38.9,6.6-43.4s11.5-37.5,6.8-43.5C607,405.9,606.6,401.1,606.6,401.1z" style="fill:#77b6e5"></path>
            </g>
            <g>
              <path d="M592.3,381.3c22.3,1.9,31.8-20.7,31.8-20.7c-13.4,4.7-32.1,5.8-32.1,5.8L592.3,381.3z" style="fill:#3c4150"></path>
            </g>
            <g>
              <path d="M648.8,323.2c0,0-9.6-1.8-9.6,1.4c0,3.2-6.3,25.7-15.1,27.3c-8.8,1.7-33.2,13.3-36.1,11.8
							s-4.3,3.6-4.3,3.6s39.3-3.9,45.4-9C637.5,351.6,647.2,333.5,648.8,323.2z" style="fill:#f4f4f4"></path>
            </g>
            <g>
              <path d="M583.8,367.6c-0.2,0-0.3-0.1-0.3-0.3c0-0.2,0.1-0.3,0.3-0.3c0.4,0,39.3-4,45.3-8.9
							c7.8-6.4,17.9-24.4,19.5-35c0-0.2,0.2-0.3,0.3-0.3c0.2,0,0.3,0.2,0.3,0.3c-1.5,9.9-10.9,28.2-19.7,35.3
							C623.3,363.6,585.4,367.4,583.8,367.6C583.8,367.6,583.8,367.6,583.8,367.6z" style="fill:#3e414e"></path>
            </g>
            <g>
              <g>
                <path d="M642.1,278.7c-0.7,2.6-4.5,7.1-5.8,6.8c0-2.3-1.2-4.2-2.5-4.8c-2.1-1-5.8,2.6-5.8,2.6
								c0.3-2.5-1.8-6.2-2.3-7.1c0,0,0-0.1,0-0.1c0-0.1-0.1-0.1-0.1-0.1c-2.7,0.4-5.3,0.2-7.6-0.2c-0.1,0-0.1,0-0.2,0
								c-5.8-1.3-10.6-4.4-11.7-5.1c0,0,0,0,0,0c-0.1-0.1-0.1-0.1-0.2-0.1c0,0,0,0,0,0s-0.6,3.7-0.7,8.6c-0.6-2.4-1.7-7.1-1.2-8.4
								c0,0-5.2-8.3-0.1-14.4c5.1-6.2,15.3-1.5,17.7,2.1c0,0,7.7-4.2,12.5-1.7c4.8,2.5,9.7,9,5.6,15.8
								C639.4,272.6,642.8,275.9,642.1,278.7z" style="fill:#3c4150"></path>
              </g>
              <g>
                <path d="M605.4,280.9c-0.1,0-0.3-0.1-0.3-0.2c0,0-0.2-0.6-0.4-1.4c0,0,0-0.1,0-0.1c0.2-4.8,0.7-8.6,0.7-8.6
								c0-0.2,0.2-0.3,0.3-0.3c0.2,0,0.3,0.2,0.3,0.3l-0.4,10C605.7,280.8,605.6,280.9,605.4,280.9
								C605.4,280.9,605.4,280.9,605.4,280.9z" style="fill:#3e414e"></path>
              </g>
              <g>
                <path d="M606,271.1c-0.1,0-0.1,0-0.2,0c-0.1-0.1-0.1-0.1-0.2-0.1c-0.1-0.1-0.2-0.3-0.1-0.4
								c0.1-0.1,0.3-0.2,0.4-0.1l-0.2,0.2l0.2-0.2c0,0,0,0,0,0l0,0c0,0,0.1,0.1,0.2,0.1c0.1,0.1,0.1,0.3,0.1,0.4
								C606.2,271,606.1,271.1,606,271.1z" style="fill:#3e414e"></path>
              </g>
              <g>
                <path d="M617.7,276.2C617.7,276.2,617.6,276.2,617.7,276.2c-6.4-1.2-11-4.5-11.9-5.2c-0.1-0.1-0.2-0.3-0.1-0.4
								s0.3-0.2,0.4-0.1c1.3,0.9,6,3.8,11.6,5c0.2,0,0.3,0.2,0.2,0.4C617.9,276.1,617.8,276.2,617.7,276.2z" style="fill:#3e414e"></path>
              </g>
              <g>
                <path d="M627.9,283.7C627.9,283.7,627.9,283.7,627.9,283.7c-0.2,0-0.3-0.2-0.3-0.3c0.2-1.5-1.1-4.6-2.3-6.9
								c-0.1-0.1,0-0.3,0.1-0.4c0.1-0.1,0.3,0,0.4,0.1c0.5,0.8,2.7,4.7,2.4,7.3C628.2,283.6,628,283.7,627.9,283.7z" style="fill:#3e414e"></path>
              </g>
              <g>
                <path d="M636.3,285.6c-0.2,0-0.3-0.2-0.4-0.4c-1.4-4.7-8-1.8-8-1.8s3.8-3.6,5.8-2.6
								C635,281.4,636.3,283.3,636.3,285.6z" style="fill:#3c4150"></path>
              </g>
              <g>
                <path d="M636.3,285.6c0,1.4-0.4,2.9-1.6,4.4l-0.6,18.7L623.2,324l-4.9-16l-0.4-6.6c-11.7,2-13.1-12.4-12.8-22.2
								c0.2,0.9,0,0,0,0l0.7-8.6c0,0,0,0,0,0c0,0,0.1,0.1,0.2,0.1c0,0,0,0,0,0c1,0.7,5.5,3.9,11.7,5.1c0.1,0,0.1,0,0.2,0
								c2.4,0.5,5.1,0.7,7.6,0.2c0,0,0,0,0.1,0.1c0,0,0,0,0,0.1c0.5,0.9,2.6,5,2.3,7.1c0,0,6.6-2.9,8,1.8
								C636,285.4,636.1,285.5,636.3,285.6z" style="fill:#fff"></path>
                <path d="M623.2,324.3C623.2,324.3,623.2,324.3,623.2,324.3c-0.2,0-0.3-0.1-0.3-0.2l-4.9-16l-0.4-6.4
								c-3.1,0.5-5.6-0.2-7.6-1.9c-4.7-4.1-5.4-13.5-5.2-20.6c0,0,0,0,0,0c0,0,0,0,0,0c0,0,0,0,0,0v0c0,0,0,0,0,0c0,0,0,0,0,0
								c0,0,0,0,0,0l0,0c0,0,0,0,0,0l0.7-8.6c0-0.1,0.1-0.2,0.2-0.3c0.1,0,0.2,0,0.3,0.1c0,0,0.1,0.1,0.1,0.1c0,0,0.1,0,0.1,0.1
								c0.9,0.7,5.4,3.8,11.5,5l0.1,0c0,0,0.1,0,0.1,0c2.7,0.6,5.2,0.6,7.5,0.2c0.1,0,0.2,0,0.3,0.1c0,0,0,0,0.1,0.1c0,0,0,0,0,0.1
								c0.7,1.4,2.3,4.7,2.4,6.8c1.1-0.4,3.9-1.3,6-0.3c1,0.5,1.7,1.3,2,2.4c0.1,0.2,0.1,0.2,0.2,0.2c0.1,0,0.2,0.2,0.2,0.3
								c0,1.6-0.5,3.1-1.6,4.5l-0.6,18.6c0,0.1,0,0.1-0.1,0.2l-10.9,15.4C623.4,324.3,623.3,324.3,623.2,324.3z M617.9,301.1
								c0.1,0,0.1,0,0.2,0.1c0.1,0.1,0.1,0.1,0.1,0.2l0.4,6.6l4.7,15.4l10.5-14.8l0.6-18.6c0-0.1,0-0.1,0.1-0.2
								c0.9-1.2,1.5-2.6,1.5-4c-0.1-0.1-0.3-0.2-0.4-0.5c-0.3-1-0.9-1.7-1.7-2.1c-2.3-1.1-5.9,0.5-5.9,0.5c-0.1,0-0.2,0-0.3,0
								c-0.1-0.1-0.1-0.2-0.1-0.3c0.2-1.5-1.1-4.6-2.3-6.9c-2.3,0.4-4.9,0.3-7.5-0.3l-0.1,0c-5.9-1.2-10.4-4.1-11.6-5l-0.7,8
								l0.1,0.3c0,0,0,0,0,0.1c0,0.1,0,0.2-0.1,0.2c-0.2,6.9,0.6,15.7,5,19.5C612.3,301,614.8,301.6,617.9,301.1
								C617.8,301.1,617.9,301.1,617.9,301.1z" style="fill:#3e414e"></path>
              </g>
              <g>
                <path d="M617.9,301.7c-0.1,0-0.3-0.1-0.3-0.3c0-0.2,0.1-0.3,0.2-0.3c2.1-0.4,4.4-1.2,6.9-2.6
								c0.1-0.1,0.3,0,0.4,0.1c0.1,0.1,0,0.3-0.1,0.4C622.4,300.4,620.1,301.3,617.9,301.7C617.9,301.7,617.9,301.7,617.9,301.7z" style="fill:#3e414e"></path>
              </g>
              <g>
                <path d="M610.6,281c-0.1,0-0.3-0.1-0.3-0.2c-0.2-1-2-1.7-2.7-1.9c-0.2,0-0.3-0.2-0.2-0.4c0-0.2,0.2-0.3,0.4-0.2
								c0.1,0,2.8,0.8,3.1,2.3C611,280.8,610.9,280.9,610.6,281C610.7,281,610.7,281,610.6,281z" style="fill:#3e414e"></path>
              </g>
              <g>
                <path d="M619.3,283.2c-0.1,0-0.2-0.1-0.3-0.2c-0.8-2.4-3.5-2.4-3.5-2.4c-0.2,0-0.3-0.1-0.3-0.3
								c0-0.2,0.1-0.3,0.3-0.3c0,0,3.2,0,4.1,2.8C619.6,283,619.6,283.1,619.3,283.2C619.4,283.2,619.3,283.2,619.3,283.2z" style="fill:#3e414e"></path>
              </g>
              <g>
                <path d="M612.3,288c-1,0-2.3-1.2-2.4-1.3c-0.1-0.1-0.1-0.2-0.1-0.4l2-3.5c0.1-0.1,0.3-0.2,0.4-0.1
								c0.1,0.1,0.2,0.3,0.1,0.4l-1.8,3.3c0.4,0.4,1.3,1,1.9,1c0.2,0,0.3,0.1,0.3,0.3S612.5,288,612.3,288z" style="fill:#3e414e"></path>
              </g>
              <g>
                <path d="M611.9,292.3C611.9,292.3,611.9,292.3,611.9,292.3c-1.7-0.1-3.1-1.4-3.2-1.5c-0.1-0.1-0.1-0.3,0-0.4
								c0.1-0.1,0.3-0.1,0.4,0c0,0,1.3,1.2,2.8,1.3c0.2,0,0.3,0.2,0.3,0.3C612.2,292.2,612.1,292.3,611.9,292.3z" style="fill:#3e414e"></path>
              </g>
              <g>
                <circle cx="615.5" cy="284.6" r=".7" style="fill:#3c4150"></circle>
              </g>
              <g>
                <circle cx="608.4" cy="282.3" r=".7" style="fill:#3c4150"></circle>
              </g>
            </g>
            <g>
              <path d="M650.7,571.2h-20.9c-0.2,0-0.3-0.1-0.3-0.3l-8.5-124.2l-22.3,124.3c0,0.1-0.2,0.2-0.3,0.2h-20.3
							c-0.1,0-0.2,0-0.2-0.1c-0.1-0.1-0.1-0.1-0.1-0.2l17.1-173.4c0-0.1,0.1-0.2,0.2-0.2c0.1,0,0.2-0.1,0.3,0
							c0.2,0.1,18.3,8.8,51.1,0c0.1,0,0.2,0,0.3,0c0.1,0.1,0.1,0.1,0.1,0.2l4.3,173.4c0,0.1,0,0.2-0.1,0.2
							C650.8,571.2,650.7,571.2,650.7,571.2z M630,570.6h20.3l-4.3-172.7c-30.2,8-48,1.3-50.8,0.1l-17,172.6H598l22.7-126.4
							c0-0.2,0.2-0.3,0.3-0.2c0.2,0,0.3,0.1,0.3,0.3L630,570.6z" style="fill:#3e414e"></path>
            </g>
          </g>
          <g>
            <path d="M592,383.7c0,0,0.5,12.3,2.3,13.4c1.8,1.1,7.2,3.6,18.2,4.2c0,0,17,1.5,33.1-3.4c1.5-0.5,2.6-1.8,2.8-3.3
						c0.3-2.9,0.7-8.6,0.2-19.7c0,0-5.6,16.2-22.6,14S592,383.7,592,383.7z" style="fill:#f4f4f4"></path>
          </g>
          <g>
            <path d="M618.7,401.8c-3.8,0-6.1-0.2-6.2-0.2c-11-0.7-16.5-3.2-18.3-4.3c-1.9-1.1-2.4-12.4-2.5-13.6
						c0-0.2,0.1-0.3,0.3-0.3c0.2,0,0.3,0.1,0.3,0.3c0.2,4.7,0.9,12.4,2.2,13.1c1.8,1,7.2,3.5,18.1,4.2c0.2,0,17.1,1.4,33-3.4
						c1.4-0.4,2.4-1.6,2.6-3.1c0.4-2.9,0.7-8.6,0.2-19.7c0-0.2,0.1-0.3,0.3-0.3c0.2,0,0.3,0.1,0.3,0.3c0.5,11.1,0.2,16.9-0.2,19.8
						c-0.2,1.7-1.4,3.1-3,3.6C635.7,401.2,625.1,401.8,618.7,401.8z" style="fill:#3e414e"></path>
          </g>
        </g>
      </g>
      <g>
        <g>
          <ellipse cx="404.1" cy="579" rx="107" ry="12.5" style="fill:#f4f4f4"></ellipse>
        </g>
        <g>
          <g>
            <path d="M478.5,582.8h-140c-12.8,0-23.3-10.4-23.3-23.3V277.2c0-12.8,10.4-23.3,23.3-23.3h140
						c12.8,0,23.3,10.4,23.3,23.3v282.3C501.7,572.4,491.3,582.8,478.5,582.8z" style="fill:#fff"></path>
            <path d="M478.5,583.1h-140c-13,0-23.6-10.6-23.6-23.6V277.2c0-13,10.6-23.6,23.6-23.6h140
						c13,0,23.6,10.6,23.6,23.6v282.3C502,572.5,491.5,583.1,478.5,583.1z M338.5,254.3c-12.7,0-22.9,10.3-22.9,22.9v282.3
						c0,12.7,10.3,22.9,22.9,22.9h140c12.7,0,22.9-10.3,22.9-22.9V277.2c0-12.7-10.3-22.9-22.9-22.9H338.5z" style="fill:#3e414e"></path>
          </g>
          <g>
            <g>
              <path d="M317.3,254h12.1c-7.8,0-14.1,6.3-14.1,14.1v300.7c0,7.8,6.3,14.1,14.1,14.1h-12.1
							c-7.8,0-14.1-6.3-14.1-14.1V268.1C303.2,260.3,309.5,254,317.3,254z" style="fill:#9ec9ef"></path>
            </g>
            <g>
              <path d="M329.4,583.1h-12.1c-7.9,0-14.4-6.4-14.4-14.4V268.1c0-7.9,6.4-14.4,14.4-14.4h12.1
							c0.2,0,0.3,0.1,0.3,0.3s-0.1,0.3-0.3,0.3c-7.6,0-13.8,6.2-13.8,13.8v300.7c0,7.6,6.2,13.8,13.8,13.8c0.2,0,0.3,0.1,0.3,0.3
							S329.5,583.1,329.4,583.1z M317.3,254.3c-7.6,0-13.8,6.2-13.8,13.8v300.7c0,7.6,6.2,13.8,13.8,13.8h8
							c-5.9-1.8-10.2-7.3-10.2-13.8V268.1c0-6.5,4.3-12,10.2-13.8H317.3z" style="fill:#3e414e"></path>
            </g>
          </g>
          <g>
            <path d="M307.4,568.7V268.1c0-7.8,6.3-14.1,14.1-14.1h-4.2c-7.8,0-14.1,6.3-14.1,14.1v300.7
						c0,7.8,6.3,14.1,14.1,14.1h4.2C313.7,582.8,307.4,576.5,307.4,568.7z" style="fill:#77b6e5"></path>
          </g>
          <g>
            <path d="M321.5,583.1h-4.2c-7.9,0-14.4-6.4-14.4-14.4V268.1c0-7.9,6.4-14.4,14.4-14.4h4.2c0.2,0,0.3,0.1,0.3,0.3
						s-0.1,0.3-0.3,0.3h-4.2c-7.6,0-13.8,6.2-13.8,13.8v300.7c0,7.6,6.2,13.8,13.8,13.8h4.2c0.2,0,0.3,0.1,0.3,0.3
						S321.7,583.1,321.5,583.1z" style="fill:#3e414e"></path>
          </g>
          <g>
            <path d="M483.6,575.2H333.4c-5.8,0-10.6-4.7-10.6-10.6V287c0-5.8,4.7-10.6,10.6-10.6h150.2
						c5.8,0,10.6,4.7,10.6,10.6v277.6C494.2,570.5,489.5,575.2,483.6,575.2z M333.4,277.1c-5.5,0-9.9,4.5-9.9,9.9v277.6
						c0,5.5,4.5,9.9,9.9,9.9h150.2c5.5,0,9.9-4.5,9.9-9.9V287c0-5.5-4.5-9.9-9.9-9.9H333.4z" style="fill:#3e414e"></path>
          </g>
          <g>
            <g>
              <path d="M338.5,289.6H330c-0.2,0-0.3-0.1-0.3-0.3s0.1-0.3,0.3-0.3h8.6c0.2,0,0.3,0.1,0.3,0.3
							S338.7,289.6,338.5,289.6z" style="fill:#3e414e"></path>
            </g>
            <g>
              <path d="M338.5,293.5H330c-0.2,0-0.3-0.1-0.3-0.3s0.1-0.3,0.3-0.3h8.6c0.2,0,0.3,0.1,0.3,0.3
							S338.7,293.5,338.5,293.5z" style="fill:#3e414e"></path>
            </g>
            <g>
              <path d="M338.5,297.4H330c-0.2,0-0.3-0.1-0.3-0.3s0.1-0.3,0.3-0.3h8.6c0.2,0,0.3,0.1,0.3,0.3
							S338.7,297.4,338.5,297.4z" style="fill:#3e414e"></path>
            </g>
            <g>
              <g>
                <circle cx="482.7" cy="293.2" r="4.3" style="fill:#e1e4e1"></circle>
                <path d="M482.7,297.8c-2.5,0-4.6-2.1-4.6-4.6s2.1-4.6,4.6-4.6s4.6,2.1,4.6,4.6S485.3,297.8,482.7,297.8z
								 M482.7,289.2c-2.2,0-4,1.8-4,4s1.8,4,4,4c2.2,0,4-1.8,4-4S485,289.2,482.7,289.2z" style="fill:#3e414e"></path>
              </g>
              <g>
                <path d="M481.3,294.9c-0.1,0-0.2,0-0.2-0.1c-0.1-0.1-0.1-0.3,0-0.4l2.9-2.9c0.1-0.1,0.3-0.1,0.4,0
								c0.1,0.1,0.1,0.3,0,0.4l-2.9,2.9C481.4,294.9,481.4,294.9,481.3,294.9z" style="fill:#3e414e"></path>
              </g>
              <g>
                <path d="M484.2,294.9c-0.1,0-0.2,0-0.2-0.1l-2.9-2.9c-0.1-0.1-0.1-0.3,0-0.4c0.1-0.1,0.3-0.1,0.4,0l2.9,2.9
								c0.1,0.1,0.1,0.3,0,0.4C484.4,294.9,484.3,294.9,484.2,294.9z" style="fill:#3e414e"></path>
              </g>
            </g>
          </g>
          <g>
            <g>
              <path d="M459.5,293.5H357.5c-0.2,0-0.3-0.1-0.3-0.3s0.1-0.3,0.3-0.3h102.1c0.2,0,0.3,0.1,0.3,0.3
							S459.7,293.5,459.5,293.5z" style="fill:#3e414e"></path>
            </g>
            <g>
              <path d="M455.8,300.5c-0.1,0-0.2,0-0.2-0.1c-0.1-0.1-0.1-0.3,0-0.4l6.8-6.8l-6.8-6.8c-0.1-0.1-0.1-0.3,0-0.4
							c0.1-0.1,0.3-0.1,0.4,0l7,7c0.1,0.1,0.1,0.1,0.1,0.2s0,0.2-0.1,0.2l-7,7C456,300.5,455.9,300.5,455.8,300.5z" style="fill:#3e414e"></path>
            </g>
            <g>
              <path d="M361.2,300.5c-0.1,0-0.2,0-0.2-0.1l-7-7c-0.1-0.1-0.1-0.3,0-0.4l7-7c0.1-0.1,0.3-0.1,0.4,0
							c0.1,0.1,0.1,0.3,0,0.4l-6.8,6.8l6.8,6.8c0.1,0.1,0.1,0.3,0,0.4C361.4,300.5,361.3,300.5,361.2,300.5z" style="fill:#3e414e"></path>
            </g>
          </g>
          <g>
            <g>
              <path d="M438.1,266.8h-47.8c-1.5,0-2.7-1.2-2.7-2.7v0c0-1.5,1.2-2.7,2.7-2.7h47.8c1.5,0,2.7,1.2,2.7,2.7v0
							C440.7,265.7,439.6,266.8,438.1,266.8z" style="fill:#e1e4e1"></path>
              <path d="M438.1,267.1h-47.8c-1.6,0-3-1.3-3-3s1.3-3,3-3h47.8c1.6,0,3,1.3,3,3S439.7,267.1,438.1,267.1z
							 M390.3,261.8c-1.3,0-2.4,1.1-2.4,2.4s1.1,2.4,2.4,2.4h47.8c1.3,0,2.4-1.1,2.4-2.4s-1.1-2.4-2.4-2.4H390.3z" style="fill:#3e414e"></path>
            </g>
            <g>
              <circle cx="378.9" cy="264.2" r="2.7" style="fill:#e1e4e1"></circle>
              <path d="M378.9,267.1c-1.6,0-3-1.3-3-3s1.3-3,3-3s3,1.3,3,3S380.6,267.1,378.9,267.1z M378.9,261.8
							c-1.3,0-2.4,1.1-2.4,2.4s1.1,2.4,2.4,2.4s2.4-1.1,2.4-2.4S380.2,261.8,378.9,261.8z" style="fill:#3e414e"></path>
            </g>
          </g>
        </g>
      </g>
      <g>
        <g>
          <g>
            <path d="M536.2,325.9h-21.7c-2,0-3.6-1.6-3.6-3.6v-41.9c0-2,1.6-3.6,3.6-3.6h21.7c2,0,3.6,1.6,3.6,3.6v41.9
						C539.8,324.3,538.2,325.9,536.2,325.9z" style="fill:#3c4150"></path>
          </g>
          <g>
            <rect width="38.4" height="29" x="506.2" y="286.9" style="fill:#fff" transform="rotate(90 525.347 301.359)"></rect>
          </g>
          <g>
            <g>
              <path d="M527.7,279.9h-8.4c-0.2,0-0.3-0.1-0.3-0.3s0.1-0.3,0.3-0.3h8.4c0.2,0,0.3,0.1,0.3,0.3
							S527.8,279.9,527.7,279.9z" style="fill:#f4f4f4"></path>
            </g>
            <g>
              <path d="M531.4,279.9H529c-0.2,0-0.3-0.1-0.3-0.3s0.1-0.3,0.3-0.3h2.5c0.2,0,0.3,0.1,0.3,0.3
							S531.6,279.9,531.4,279.9z" style="fill:#f4f4f4"></path>
            </g>
          </g>
          <g>
            <circle cx="525.3" cy="323.3" r="1.4" style="fill:#fff"></circle>
          </g>
        </g>
        <g>
          <g>
            <circle cx="525.3" cy="301.4" r="10.2" style="fill:#fff"></circle>
            <path d="M525.3,311.8c-5.8,0-10.5-4.7-10.5-10.5s4.7-10.5,10.5-10.5s10.5,4.7,10.5,10.5S531.1,311.8,525.3,311.8z
						 M525.3,291.5c-5.4,0-9.9,4.4-9.9,9.9s4.4,9.9,9.9,9.9s9.9-4.4,9.9-9.9S530.8,291.5,525.3,291.5z" style="fill:#3e414e"></path>
          </g>
          <g>
            <path d="M525.3,309c-4.2,0-7.6-3.4-7.6-7.6c0-4.2,3.4-7.6,7.6-7.6s7.6,3.4,7.6,7.6
						C532.9,305.6,529.5,309,525.3,309z" style="fill:#9ec9ef"></path>
          </g>
          <g>
            <path d="M523.2,304.5l-1.9-1.9c-0.4-0.4-0.4-1.1,0-1.6l0,0c0.4-0.4,1.1-0.4,1.6,0l1.1,1.1l3.9-3.9
						c0.4-0.4,1.1-0.4,1.6,0l0,0c0.4,0.4,0.4,1.1,0,1.6l-4.8,4.8C524.2,304.9,523.6,304.9,523.2,304.5z" style="fill:#fff"></path>
          </g>
        </g>
      </g>
      <g>
        <path d="M471.7,417.9H346.2c-6.9,0-12.5-5.6-12.5-12.5v-64.8c0-6.9,5.6-12.5,12.5-12.5h125.5
				c6.9,0,12.5,5.6,12.5,12.5v64.8C484.2,412.3,478.6,417.9,471.7,417.9z" style="fill:#fff"></path>
        <path d="M471.7,418.2H346.3c-7.1,0-12.8-5.7-12.8-12.8v-64.8c0-7.1,5.7-12.8,12.8-12.8h125.5
				c7.1,0,12.8,5.7,12.8,12.8v64.8C484.5,412.5,478.8,418.2,471.7,418.2z M346.3,328.4c-6.7,0-12.2,5.5-12.2,12.2v64.8
				c0,6.7,5.5,12.2,12.2,12.2h125.5c6.7,0,12.2-5.5,12.2-12.2v-64.8c0-6.7-5.5-12.2-12.2-12.2H346.3z" style="fill:#3e414e"></path>
      </g>
      <g>
        <g>
          <path d="M393,401.3l-5.6-48c-0.1-1.3-1.2-2.3-2.5-2.3h-25.8c-1.3,0-2.4,1-2.5,2.3l-5.6,48c-0.2,1.5,1,2.9,2.5,2.9
					h36.9C392,404.1,393.1,402.8,393,401.3z" style="fill:#e1e4e1"></path>
          <path d="M390.4,404.4h-36.9c-0.8,0-1.6-0.3-2.1-1c-0.5-0.6-0.8-1.4-0.7-2.2l5.6-48c0.2-1.4,1.4-2.5,2.8-2.5h25.8
					c1.5,0,2.7,1.1,2.8,2.5l5.6,48c0.1,0.8-0.2,1.6-0.7,2.2C392,404.1,391.2,404.4,390.4,404.4z M359.1,351.3c-1.1,0-2.1,0.9-2.2,2
					l-5.6,48c-0.1,0.6,0.1,1.3,0.6,1.8s1,0.8,1.7,0.8h36.9c0.6,0,1.3-0.3,1.7-0.8s0.6-1.1,0.6-1.8l0,0l-5.6-48c-0.1-1.1-1.1-2-2.2-2
					H359.1z" style="fill:#3e414e"></path>
        </g>
        <g>
          <path d="M377.9,362.1H366c-0.9,0-1.6-0.7-1.6-1.6v-1.2c0-0.9,0.7-1.6,1.6-1.6h11.8c0.9,0,1.6,0.7,1.6,1.6v1.2
					C379.5,361.4,378.8,362.1,377.9,362.1z" style="fill:#fff"></path>
          <path d="M377.9,362.4H366c-1.1,0-2-0.9-2-1.9v-1.2c0-1.1,0.9-1.9,2-1.9h11.8c1.1,0,2,0.9,2,1.9v1.2
					C379.8,361.5,378.9,362.4,377.9,362.4z M366,357.9c-0.7,0-1.3,0.6-1.3,1.3v1.2c0,0.7,0.6,1.3,1.3,1.3h11.8
					c0.7,0,1.3-0.6,1.3-1.3v-1.2c0-0.7-0.6-1.3-1.3-1.3H366z" style="fill:#3e414e"></path>
        </g>
        <g>
          <ellipse cx="372" cy="385.8" rx="13.9" ry="7.3" style="fill:#f08680"></ellipse>
          <path d="M372,393.4c-7.8,0-14.2-3.4-14.2-7.6c0-4.2,6.3-7.6,14.2-7.6s14.2,3.4,14.2,7.6
					C386.1,390,379.8,393.4,372,393.4z M372,378.7c-7.5,0-13.5,3.2-13.5,7c0,3.9,6.1,7,13.5,7s13.5-3.2,13.5-7
					C385.5,381.9,379.4,378.7,372,378.7z" style="fill:#3e414e"></path>
        </g>
        <g>
          <path d="M372,378.4c-6.3,0-11.7,2.3-13.3,5.4c2.5-1.6,6.3-2.6,10.6-2.6c7.6,0,13.9,3.3,13.9,7.3
					c0,0.7-0.2,1.4-0.5,2c2-1.3,3.3-2.9,3.3-4.7C385.8,381.7,379.6,378.4,372,378.4z" style="fill:#e16d69"></path>
        </g>
        <g>
          <path d="M372,393.4c-7.8,0-14.2-3.4-14.2-7.6c0-4.2,6.3-7.6,14.2-7.6s14.2,3.4,14.2,7.6
					C386.1,390,379.8,393.4,372,393.4z M372,378.7c-7.5,0-13.5,3.2-13.5,7c0,3.9,6.1,7,13.5,7s13.5-3.2,13.5-7
					C385.5,381.9,379.4,378.7,372,378.7z" style="fill:#3e414e"></path>
        </g>
      </g>
      <g>
        <g>
          <path d="M452.7,392.5h10.6h6.1c0,3.1-1.2,5.9-3.3,7.9c-2,2-4.8,3.3-7.9,3.3h-24.3c-6.2,0-11.1-5-11.1-11.1h6.1h19.8
					H452.7z" style="fill:#e1e4e1"></path>
          <path d="M458.2,404h-24.3c-6.3,0-11.4-5.1-11.4-11.4c0-0.2,0.1-0.3,0.3-0.3h46.6c0.2,0,0.3,0.1,0.3,0.3
					c0,3.1-1.2,5.9-3.4,8.1C464.2,402.8,461.3,404,458.2,404z M423.1,392.8c0.2,5.8,5,10.5,10.8,10.5h24.3c2.9,0,5.6-1.1,7.7-3.2
					c2-2,3.1-4.6,3.2-7.4H423.1z" style="fill:#3e414e"></path>
        </g>
        <g>
          <g>
            <path d="M469.4,380.4h-46.6v0c0-11.2,9.1-20.3,20.3-20.3h6.1C460.3,360.1,469.4,369.2,469.4,380.4L469.4,380.4z" style="fill:#9ec9ef"></path>
          </g>
          <g>
            <path d="M469.4,380.7h-46.6c-0.2,0-0.3-0.1-0.3-0.3c0-11.3,9.2-20.6,20.6-20.6h6.1c11.3,0,20.6,9.2,20.6,20.6
						C469.7,380.5,469.6,380.7,469.4,380.7z M423.1,380h46c-0.2-10.9-9.1-19.7-20-19.7H443C432.1,360.4,423.2,369.2,423.1,380z" style="fill:#3e414e"></path>
          </g>
        </g>
        <g>
          <path d="M443,364.1h6.1c9.8,0,18,7,19.9,16.2h0.4c0-11.2-9.1-20.3-20.3-20.3H443c-11.2,0-20.3,9.1-20.3,20.3h0.4
					C425.1,371.1,433.2,364.1,443,364.1z" style="fill:#77b6e5"></path>
        </g>
        <g>
          <path d="M452.7,392.5h10.6c1.7,0,3.2-0.7,4.3-1.8c0.9-0.9,1.5-2,1.7-3.3c0.1-0.3,0.1-0.7,0.1-1
					c0-3.4-2.7-6.1-6.1-6.1h-3H444h-15.2c-1.7,0-3.2,0.7-4.3,1.8c-0.9,0.9-1.5,2-1.7,3.3c-0.1,0.3-0.1,0.7-0.1,1
					c0,3.4,2.7,6.1,6.1,6.1h19.8H452.7z" style="fill:#fff"></path>
          <path d="M463.3,392.8h-34.5c-3.5,0-6.4-2.9-6.4-6.4c0-0.4,0-0.7,0.1-1.1c0.2-1.3,0.8-2.5,1.8-3.4
					c1.2-1.2,2.8-1.9,4.5-1.9h34.5c3.5,0,6.4,2.9,6.4,6.4c0,0.4,0,0.7-0.1,1.1c-0.2,1.3-0.8,2.5-1.8,3.4
					C466.6,392.1,465,392.8,463.3,392.8z M428.9,380.7c-1.5,0-3,0.6-4.1,1.7c-0.9,0.9-1.4,1.9-1.6,3.1c-0.1,0.3-0.1,0.6-0.1,1
					c0,3.2,2.6,5.8,5.8,5.8h34.5c1.5,0,3-0.6,4.1-1.7c0.9-0.9,1.4-1.9,1.6-3.1c0.1-0.3,0.1-0.6,0.1-1c0-3.2-2.6-5.8-5.8-5.8H428.9z" style="fill:#3e414e"></path>
        </g>
        <g>
          <path d="M469.4,387.7L469.4,387.7c-1.8,0-2.7-0.5-3.5-1.1c-0.8-0.5-1.6-1-3.2-1c-1.6,0-2.4,0.5-3.2,1
					c-0.9,0.5-1.7,1.1-3.5,1.1c-0.1,0-0.2,0-0.2,0c-0.2,0-0.3-0.2-0.2-0.3c0-0.2,0.2-0.3,0.3-0.2c0,0,0.1,0,0.1,0
					c1.6,0,2.3-0.5,3.2-1c0.9-0.5,1.7-1.1,3.5-1.1c1.8,0,2.6,0.5,3.5,1.1c0.8,0.5,1.6,1,3.1,1h0.1c0.2,0,0.3,0.1,0.3,0.3
					S469.6,387.7,469.4,387.7z" style="fill:#3e414e"></path>
        </g>
        <g>
          <path d="M442.7,387.7c-1.8,0-2.6-0.5-3.5-1.1c-0.8-0.5-1.6-1-3.2-1c-1.6,0-2.4,0.5-3.2,1c-0.9,0.5-1.7,1.1-3.5,1.1
					c-1.8,0-2.6-0.5-3.5-1.1c-0.8-0.5-1.6-0.9-3.1-1h-0.1c-0.2,0-0.3-0.1-0.3-0.3s0.1-0.3,0.3-0.3h0.1c1.7,0,2.6,0.5,3.4,1.1
					c0.8,0.5,1.6,1,3.2,1c1.6,0,2.3-0.5,3.2-1c0.9-0.5,1.7-1.1,3.5-1.1c1.7,0,2.6,0.5,3.5,1.1c0.8,0.5,1.6,1,3.2,1
					c1.6,0,2.3-0.5,3.2-1l0.2-0.1c0.1-0.1,0.3,0,0.4,0.1c0.1,0.1,0,0.3-0.1,0.4l-0.2,0.1C445.4,387.2,444.5,387.7,442.7,387.7z" style="fill:#3e414e"></path>
        </g>
        <g>
          <path d="M433.9,368.5c-0.1,0-0.2-0.1-0.3-0.2c-0.1-0.1,0-0.3,0.1-0.4l2-1c0.1-0.1,0.3,0,0.4,0.1
					c0.1,0.1,0,0.3-0.1,0.4l-2,1C434,368.5,434,368.5,433.9,368.5z" style="fill:#f4f4f4"></path>
        </g>
        <g>
          <path d="M440.1,373.4C440,373.4,440,373.4,440.1,373.4l-2.3-0.7c-0.2,0-0.3-0.2-0.2-0.4s0.2-0.3,0.4-0.2l2.2,0.7
					c0.2,0,0.3,0.2,0.2,0.4C440.3,373.3,440.2,373.4,440.1,373.4z" style="fill:#f4f4f4"></path>
        </g>
        <g>
          <path d="M431.2,375.9c-0.1,0-0.1,0-0.2-0.1c-0.1-0.1-0.1-0.3,0-0.4l1.5-1.7c0.1-0.1,0.3-0.1,0.4,0
					c0.1,0.1,0.1,0.3,0,0.4l-1.5,1.7C431.3,375.9,431.2,375.9,431.2,375.9z" style="fill:#f4f4f4"></path>
        </g>
        <g>
          <path d="M444.4,365.7c0,0-0.1,0-0.1,0l-2.1-0.8c-0.2-0.1-0.2-0.2-0.2-0.4s0.2-0.2,0.4-0.2l2.1,0.8
					c0.2,0.1,0.2,0.2,0.2,0.4C444.6,365.6,444.5,365.7,444.4,365.7z" style="fill:#f4f4f4"></path>
        </g>
        <g>
          <path d="M446.3,372c-0.1,0-0.3-0.1-0.3-0.2l-0.5-2.2c0-0.2,0.1-0.3,0.2-0.4c0.2,0,0.3,0.1,0.4,0.2l0.5,2.2
					C446.7,371.8,446.6,372,446.3,372C446.4,372,446.4,372,446.3,372z" style="fill:#f4f4f4"></path>
        </g>
        <g>
          <path d="M452.1,367c-0.1,0-0.2-0.1-0.3-0.2l-0.9-2.1c-0.1-0.2,0-0.3,0.2-0.4c0.1-0.1,0.3,0,0.4,0.2l0.9,2.1
					c0.1,0.2,0,0.3-0.2,0.4C452.2,367,452.2,367,452.1,367z" style="fill:#f4f4f4"></path>
        </g>
        <g>
          <path d="M458.3,370.1c0,0-0.1,0-0.1,0c-0.2-0.1-0.2-0.2-0.2-0.4l0.8-2.1c0.1-0.2,0.2-0.2,0.4-0.2
					c0.2,0.1,0.2,0.2,0.2,0.4l-0.8,2.1C458.5,370,458.4,370.1,458.3,370.1z" style="fill:#f4f4f4"></path>
        </g>
        <g>
          <path d="M452.8,373.3c-0.1,0-0.2,0-0.3-0.1c-0.1-0.1,0-0.3,0.1-0.4l1.9-1.2c0.1-0.1,0.3,0,0.4,0.1
					c0.1,0.1,0,0.3-0.1,0.4l-1.9,1.2C452.9,373.3,452.9,373.3,452.8,373.3z" style="fill:#f4f4f4"></path>
        </g>
        <g>
          <path d="M456.8,376.4C456.8,376.4,456.8,376.4,456.8,376.4l-2.3-0.6c-0.2,0-0.3-0.2-0.2-0.4c0-0.2,0.2-0.3,0.4-0.2
					l2.2,0.5c0.2,0,0.3,0.2,0.2,0.4C457.1,376.3,456.9,376.4,456.8,376.4z" style="fill:#f4f4f4"></path>
        </g>
        <g>
          <path d="M461.3,376.1c0,0-0.1,0-0.1,0c-0.2-0.1-0.2-0.3-0.1-0.4l1-2c0.1-0.2,0.3-0.2,0.4-0.1
					c0.2,0.1,0.2,0.3,0.1,0.4l-1,2C461.5,376,461.4,376.1,461.3,376.1z" style="fill:#f4f4f4"></path>
        </g>
        <g>
          <path d="M445.7,376.8C445.7,376.8,445.6,376.8,445.7,376.8l-2.3-0.4c-0.2,0-0.3-0.2-0.3-0.3c0-0.2,0.2-0.3,0.3-0.3
					l2.2,0.3c0.2,0,0.3,0.2,0.3,0.3C446,376.7,445.8,376.8,445.7,376.8z" style="fill:#f4f4f4"></path>
        </g>
        <g>
          <polygon points="460.3 380.4 450.1 396.6 444 380.4" style="fill:#f08680"></polygon>
          <path d="M450.1,396.9C450.1,396.9,450.1,396.9,450.1,396.9c-0.1,0-0.2-0.1-0.3-0.2l-6.1-16.2c0-0.1,0-0.2,0-0.3
					c0.1-0.1,0.1-0.1,0.2-0.1h16.3c0.1,0,0.2,0.1,0.3,0.2c0.1,0.1,0,0.2,0,0.3l-10.2,16.2C450.3,396.8,450.2,396.9,450.1,396.9z
					 M444.5,380.7l5.7,15.2l9.6-15.2H444.5z" style="fill:#3e414e"></path>
        </g>
        <g>
          <path d="M469.4,380.7h-46.6c-0.2,0-0.3-0.1-0.3-0.3c0-11.3,9.2-20.6,20.6-20.6h6.1c11.3,0,20.6,9.2,20.6,20.6
					C469.7,380.5,469.6,380.7,469.4,380.7z M423.1,380h46c-0.2-10.9-9.1-19.7-20-19.7H443C432.1,360.4,423.2,369.2,423.1,380z" style="fill:#3e414e"></path>
        </g>
      </g>
      <g>
        <g>
          <path d="M415.9,403.7h-18c-0.8,0-1.4-0.6-1.5-1.3l-3.4-30.9h27.8l-3.4,30.9C417.3,403.1,416.7,403.7,415.9,403.7z" style="fill:#fff"></path>
          <path d="M415.9,404h-18c-0.9,0-1.7-0.7-1.8-1.6l-3.4-30.9c0-0.1,0-0.2,0.1-0.2c0.1-0.1,0.1-0.1,0.2-0.1h27.8
					c0.1,0,0.2,0,0.2,0.1c0.1,0.1,0.1,0.1,0.1,0.2l-3.4,30.9C417.6,403.3,416.8,404,415.9,404z M393.4,371.7l3.4,30.5
					c0.1,0.6,0.6,1.1,1.2,1.1h18c0.6,0,1.1-0.5,1.2-1.1l3.4-30.5H393.4z" style="fill:#3e414e"></path>
        </g>
        <g>
          <polygon points="414.7 389.5 399.2 389.5 398.2 381.3 415.6 381.3" style="fill:#e1e4e1"></polygon>
          <path d="M414.7,389.8h-15.5c-0.2,0-0.3-0.1-0.3-0.3l-1-8.2c0-0.1,0-0.2,0.1-0.2c0.1-0.1,0.1-0.1,0.2-0.1h17.4
					c0.1,0,0.2,0,0.2,0.1c0.1,0.1,0.1,0.1,0.1,0.2l-0.9,8.2C415,389.7,414.9,389.8,414.7,389.8z M399.5,389.2h15l0.8-7.6h-16.7
					L399.5,389.2z" style="fill:#3e414e"></path>
        </g>
        <g>
          <path d="M408.7,367.9c0,0-0.1,0-0.1,0c-0.2-0.1-0.2-0.2-0.2-0.4l4.5-10.5c0-0.1,0.1-0.1,0.2-0.2l4.2-1.3
					c0.2,0,0.3,0,0.4,0.2c0,0.2,0,0.3-0.2,0.4l-4.1,1.3l-4.4,10.4C409,367.8,408.9,367.9,408.7,367.9z" style="fill:#3e414e"></path>
        </g>
        <g>
          <g>
            <path d="M422,371.4h-30.1c-1.4,0-2.5-1.1-2.5-2.5l0,0c0-1.4,1.1-2.5,2.5-2.5H422c1.4,0,2.5,1.1,2.5,2.5l0,0
						C424.5,370.3,423.4,371.4,422,371.4z" style="fill:#9ec9ef"></path>
          </g>
          <g>
            <path d="M422,371.7h-30.1c-1.6,0-2.8-1.3-2.8-2.8s1.3-2.8,2.8-2.8H422c1.6,0,2.8,1.3,2.8,2.8
						S423.5,371.7,422,371.7z M391.9,366.7c-1.2,0-2.2,1-2.2,2.2s1,2.2,2.2,2.2H422c1.2,0,2.2-1,2.2-2.2s-1-2.2-2.2-2.2H391.9z" style="fill:#3e414e"></path>
          </g>
        </g>
        <g>
          <path d="M391.9,367.5H422c1.2,0,2.2,0.9,2.5,2c0-0.2,0.1-0.4,0.1-0.5c0-1.4-1.1-2.5-2.5-2.5h-30.1
					c-1.4,0-2.5,1.1-2.5,2.5c0,0.2,0,0.4,0.1,0.5C389.7,368.3,390.7,367.5,391.9,367.5z" style="fill:#77b6e5"></path>
        </g>
        <g>
          <path d="M422,371.7h-30.1c-1.6,0-2.8-1.3-2.8-2.8s1.3-2.8,2.8-2.8H422c1.6,0,2.8,1.3,2.8,2.8S423.5,371.7,422,371.7
					z M391.9,366.7c-1.2,0-2.2,1-2.2,2.2s1,2.2,2.2,2.2H422c1.2,0,2.2-1,2.2-2.2s-1-2.2-2.2-2.2H391.9z" style="fill:#3e414e"></path>
        </g>
      </g>
      <g>
        <circle cx="376.8" cy="443.2" r="6.5" style="fill:#e1e4e1"></circle>
        <path d="M376.8,449.9c-3.7,0-6.8-3-6.8-6.8c0-3.7,3-6.8,6.8-6.8c3.7,0,6.8,3,6.8,6.8
				C383.6,446.9,380.5,449.9,376.8,449.9z M376.8,437c-3.4,0-6.2,2.8-6.2,6.2s2.8,6.2,6.2,6.2s6.2-2.8,6.2-6.2S380.2,437,376.8,437z
				" style="fill:#3e414e"></path>
      </g>
      <g>
        <circle cx="409" cy="443.2" r="6.5" style="fill:#e1e4e1"></circle>
        <path d="M409,449.9c-3.7,0-6.8-3-6.8-6.8c0-3.7,3-6.8,6.8-6.8c3.7,0,6.8,3,6.8,6.8
				C415.8,446.9,412.7,449.9,409,449.9z M409,437c-3.4,0-6.2,2.8-6.2,6.2s2.8,6.2,6.2,6.2s6.2-2.8,6.2-6.2S412.4,437,409,437z" style="fill:#3e414e"></path>
      </g>
      <g>
        <circle cx="441.2" cy="443.2" r="6.5" style="fill:#e1e4e1"></circle>
        <path d="M441.2,449.9c-3.7,0-6.8-3-6.8-6.8c0-3.7,3-6.8,6.8-6.8s6.8,3,6.8,6.8C448,446.9,444.9,449.9,441.2,449.9z
				 M441.2,437c-3.4,0-6.2,2.8-6.2,6.2s2.8,6.2,6.2,6.2s6.2-2.8,6.2-6.2S444.6,437,441.2,437z" style="fill:#3e414e"></path>
      </g>
      <g>
        <path d="M367.4,519.2h-22.5c-3.4,0-6.1-2.7-6.1-6.1v-22.5c0-3.4,2.7-6.1,6.1-6.1h22.5c3.4,0,6.1,2.7,6.1,6.1v22.5
				C373.5,516.5,370.8,519.2,367.4,519.2z" style="fill:#fff"></path>
        <path d="M367.4,519.5h-22.5c-3.5,0-6.4-2.9-6.4-6.4v-22.5c0-3.5,2.9-6.4,6.4-6.4h22.5c3.5,0,6.4,2.9,6.4,6.4v22.5
				C373.8,516.6,370.9,519.5,367.4,519.5z M344.9,484.8c-3.2,0-5.8,2.6-5.8,5.8v22.5c0,3.2,2.6,5.8,5.8,5.8h22.5
				c3.2,0,5.8-2.6,5.8-5.8v-22.5c0-3.2-2.6-5.8-5.8-5.8H344.9z" style="fill:#3e414e"></path>
      </g>
      <g>
        <path d="M419.8,519.2h-22.5c-3.4,0-6.1-2.7-6.1-6.1v-22.5c0-3.4,2.7-6.1,6.1-6.1h22.5c3.4,0,6.1,2.7,6.1,6.1v22.5
				C425.9,516.5,423.1,519.2,419.8,519.2z" style="fill:#fff"></path>
        <path d="M419.8,519.5h-22.5c-3.5,0-6.4-2.9-6.4-6.4v-22.5c0-3.5,2.9-6.4,6.4-6.4h22.5c3.5,0,6.4,2.9,6.4,6.4v22.5
				C426.2,516.6,423.3,519.5,419.8,519.5z M397.3,484.8c-3.2,0-5.8,2.6-5.8,5.8v22.5c0,3.2,2.6,5.8,5.8,5.8h22.5
				c3.2,0,5.8-2.6,5.8-5.8v-22.5c0-3.2-2.6-5.8-5.8-5.8H397.3z" style="fill:#3e414e"></path>
      </g>
      <g>
        <path d="M472.1,519.2h-22.5c-3.4,0-6.1-2.7-6.1-6.1v-22.5c0-3.4,2.7-6.1,6.1-6.1h22.5c3.4,0,6.1,2.7,6.1,6.1v22.5
				C478.2,516.5,475.5,519.2,472.1,519.2z" style="fill:#fff"></path>
        <path d="M472.1,519.5h-22.5c-3.5,0-6.4-2.9-6.4-6.4v-22.5c0-3.5,2.9-6.4,6.4-6.4h22.5c3.5,0,6.4,2.9,6.4,6.4v22.5
				C478.5,516.6,475.7,519.5,472.1,519.5z M449.6,484.8c-3.2,0-5.8,2.6-5.8,5.8v22.5c0,3.2,2.6,5.8,5.8,5.8h22.5
				c3.2,0,5.8-2.6,5.8-5.8v-22.5c0-3.2-2.6-5.8-5.8-5.8H449.6z" style="fill:#3e414e"></path>
      </g>
      <g>
        <path d="M371.3,541.3h-28.9c-1.2,0-2.2-1-2.2-2.2l0,0c0-1.2,1-2.2,2.2-2.2h28.9c1.2,0,2.2,1,2.2,2.2l0,0
				C373.5,540.3,372.5,541.3,371.3,541.3z" style="fill:#e1e4e1"></path>
        <path d="M371.3,541.6h-28.9c-1.4,0-2.5-1.1-2.5-2.5s1.1-2.5,2.5-2.5h28.9c1.4,0,2.5,1.1,2.5,2.5
				S372.7,541.6,371.3,541.6z M342.4,537.1c-1.1,0-1.9,0.9-1.9,1.9s0.9,1.9,1.9,1.9h28.9c1.1,0,1.9-0.9,1.9-1.9s-0.9-1.9-1.9-1.9
				H342.4z" style="fill:#3e414e"></path>
      </g>
      <g>
        <path d="M360.4,552.4h-18c-1.2,0-2.2-1-2.2-2.2l0,0c0-1.2,1-2.2,2.2-2.2h18c1.2,0,2.2,1,2.2,2.2l0,0
				C362.6,551.4,361.6,552.4,360.4,552.4z" style="fill:#e1e4e1"></path>
        <path d="M360.4,552.7h-18c-1.4,0-2.5-1.1-2.5-2.5s1.1-2.5,2.5-2.5h18c1.4,0,2.5,1.1,2.5,2.5S361.8,552.7,360.4,552.7
				z M342.4,548.2c-1.1,0-1.9,0.9-1.9,1.9s0.9,1.9,1.9,1.9h18c1.1,0,1.9-0.9,1.9-1.9s-0.9-1.9-1.9-1.9H342.4z" style="fill:#3e414e"></path>
      </g>
      <g>
        <path d="M423,541.3h-28.9c-1.2,0-2.2-1-2.2-2.2l0,0c0-1.2,1-2.2,2.2-2.2H423c1.2,0,2.2,1,2.2,2.2l0,0
				C425.2,540.3,424.2,541.3,423,541.3z" style="fill:#e1e4e1"></path>
        <path d="M423,541.6h-28.9c-1.4,0-2.5-1.1-2.5-2.5s1.1-2.5,2.5-2.5H423c1.4,0,2.5,1.1,2.5,2.5S424.3,541.6,423,541.6z
				 M394.1,537.1c-1.1,0-1.9,0.9-1.9,1.9s0.9,1.9,1.9,1.9H423c1.1,0,1.9-0.9,1.9-1.9s-0.9-1.9-1.9-1.9H394.1z" style="fill:#3e414e"></path>
      </g>
      <g>
        <path d="M412.1,552.4h-18c-1.2,0-2.2-1-2.2-2.2l0,0c0-1.2,1-2.2,2.2-2.2h18c1.2,0,2.2,1,2.2,2.2l0,0
				C414.3,551.4,413.3,552.4,412.1,552.4z" style="fill:#e1e4e1"></path>
        <path d="M412.1,552.7h-18c-1.4,0-2.5-1.1-2.5-2.5s1.1-2.5,2.5-2.5h18c1.4,0,2.5,1.1,2.5,2.5S413.5,552.7,412.1,552.7
				z M394.1,548.2c-1.1,0-1.9,0.9-1.9,1.9s0.9,1.9,1.9,1.9h18c1.1,0,1.9-0.9,1.9-1.9s-0.9-1.9-1.9-1.9H394.1z" style="fill:#3e414e"></path>
      </g>
      <g>
        <path d="M474.6,541.3h-28.9c-1.2,0-2.2-1-2.2-2.2l0,0c0-1.2,1-2.2,2.2-2.2h28.9c1.2,0,2.2,1,2.2,2.2l0,0
				C476.9,540.3,475.9,541.3,474.6,541.3z" style="fill:#e1e4e1"></path>
        <path d="M474.6,541.6h-28.9c-1.4,0-2.5-1.1-2.5-2.5s1.1-2.5,2.5-2.5h28.9c1.4,0,2.5,1.1,2.5,2.5
				S476,541.6,474.6,541.6z M445.7,537.1c-1.1,0-1.9,0.9-1.9,1.9s0.9,1.9,1.9,1.9h28.9c1.1,0,1.9-0.9,1.9-1.9s-0.9-1.9-1.9-1.9
				H445.7z" style="fill:#3e414e"></path>
      </g>
      <g>
        <path d="M463.7,552.4h-18c-1.2,0-2.2-1-2.2-2.2l0,0c0-1.2,1-2.2,2.2-2.2h18c1.2,0,2.2,1,2.2,2.2l0,0
				C466,551.4,465,552.4,463.7,552.4z" style="fill:#e1e4e1"></path>
        <path d="M463.7,552.7h-18c-1.4,0-2.5-1.1-2.5-2.5s1.1-2.5,2.5-2.5h18c1.4,0,2.5,1.1,2.5,2.5S465.1,552.7,463.7,552.7
				z M445.7,548.2c-1.1,0-1.9,0.9-1.9,1.9s0.9,1.9,1.9,1.9h18c1.1,0,1.9-0.9,1.9-1.9s-0.9-1.9-1.9-1.9H445.7z" style="fill:#3e414e"></path>
      </g>
      <g>
        <g>
          <path d="M367,504.8h-21.8c-1.7,0-3-1.4-3-3l0,0c0-1.7,1.4-3,3-3H367c1.7,0,3,1.4,3,3l0,0
					C370.1,503.5,368.7,504.8,367,504.8z" style="fill:#fff"></path>
          <path d="M367,505.1h-21.8c-1.8,0-3.3-1.5-3.3-3.3s1.5-3.3,3.3-3.3H367c1.8,0,3.3,1.5,3.3,3.3S368.9,505.1,367,505.1
					z M345.3,499.1c-1.5,0-2.7,1.2-2.7,2.7s1.2,2.7,2.7,2.7H367c1.5,0,2.7-1.2,2.7-2.7s-1.2-2.7-2.7-2.7H345.3z" style="fill:#3e414e"></path>
        </g>
        <g>
          <path d="M364.9,502.6c-0.7,0-1-0.3-1.3-0.5c-0.3-0.2-0.5-0.4-0.9-0.4s-0.6,0.2-0.9,0.4c-0.3,0.2-0.6,0.5-1.3,0.5
					s-1-0.3-1.3-0.5c-0.3-0.2-0.5-0.4-0.9-0.4c-0.4,0-0.6,0.2-0.9,0.4c-0.3,0.2-0.6,0.5-1.3,0.5s-1-0.3-1.3-0.5
					c-0.3-0.2-0.5-0.4-0.9-0.4c-0.4,0-0.6,0.2-0.9,0.4c-0.3,0.2-0.6,0.5-1.3,0.5s-1-0.3-1.3-0.5c-0.3-0.2-0.5-0.4-0.9-0.4
					c-0.4,0-0.6,0.2-0.9,0.4c-0.3,0.2-0.6,0.5-1.3,0.5c-0.6,0-1-0.3-1.3-0.5c-0.3-0.2-0.5-0.4-0.9-0.4c-0.2,0-0.3-0.1-0.3-0.3
					s0.1-0.3,0.3-0.3c0.7,0,1,0.3,1.3,0.5c0.3,0.2,0.5,0.4,0.9,0.4s0.6-0.2,0.9-0.4c0.3-0.2,0.6-0.5,1.3-0.5s1,0.3,1.3,0.5
					c0.3,0.2,0.5,0.4,0.9,0.4c0.4,0,0.6-0.2,0.9-0.4c0.3-0.2,0.6-0.5,1.3-0.5s1,0.3,1.3,0.5c0.3,0.2,0.5,0.4,0.9,0.4
					c0.4,0,0.6-0.2,0.9-0.4c0.3-0.2,0.6-0.5,1.3-0.5s1,0.3,1.3,0.5c0.3,0.2,0.5,0.4,0.9,0.4c0.4,0,0.6-0.2,0.9-0.4
					c0.3-0.2,0.6-0.5,1.3-0.5s1,0.3,1.3,0.5c0.3,0.2,0.5,0.4,0.9,0.4c0.4,0,0.6-0.2,0.9-0.4c0.3-0.2,0.6-0.5,1.3-0.5
					c0.2,0,0.3,0.1,0.3,0.3s-0.1,0.3-0.3,0.3c-0.4,0-0.6,0.2-0.9,0.4C365.9,502.3,365.5,502.6,364.9,502.6z" style="fill:#3e414e"></path>
        </g>
        <g>
          <path d="M367,498.8h-21.8v0c0-2,1.6-3.6,3.6-3.6h14.5C365.4,495.2,367,496.8,367,498.8L367,498.8z" style="fill:#f08680"></path>
          <path d="M367,499.1h-21.8c-0.2,0-0.3-0.1-0.3-0.3c0-2.2,1.8-3.9,3.9-3.9h14.5c2.2,0,3.9,1.8,3.9,3.9
					C367.3,499,367.2,499.1,367,499.1z M345.6,498.5h21.1c-0.2-1.7-1.6-3-3.3-3h-14.5C347.2,495.5,345.7,496.8,345.6,498.5z" style="fill:#3e414e"></path>
        </g>
        <g>
          <path d="M364.8,495.2h-17.4c-1.2,0-2.2,1-2.2,2.2v1.2c0-1.2,1-2.2,2.2-2.2h17.4c1.2,0,2.2,1,2.2,2.2v-1.2
					C367,496.1,366.1,495.2,364.8,495.2z" style="fill:#e16d69"></path>
        </g>
        <g>
          <path d="M367,504.8h-21.8v0c0,2,1.6,3.6,3.6,3.6h14.5C365.4,508.5,367,506.8,367,504.8L367,504.8z" style="fill:#f08680"></path>
          <path d="M363.4,508.8h-14.5c-2.2,0-3.9-1.8-3.9-3.9c0-0.2,0.1-0.3,0.3-0.3H367c0.2,0,0.3,0.1,0.3,0.3v0
					C367.3,507,365.6,508.8,363.4,508.8z M345.6,505.1c0.2,1.7,1.6,3,3.3,3h14.5c1.7,0,3.2-1.3,3.3-3H345.6z" style="fill:#3e414e"></path>
        </g>
        <g>
          <path d="M364.8,507.3h-17.4c-1.2,0-2.2-1-2.2-2.2v1.2c0,1.2,1,2.2,2.2,2.2h17.4c1.2,0,2.2-1,2.2-2.2v-1.2
					C367,506.3,366.1,507.3,364.8,507.3z" style="fill:#e16d69"></path>
        </g>
        <g>
          <path d="M363.4,508.8h-14.5c-2.2,0-3.9-1.8-3.9-3.9c0-0.2,0.1-0.3,0.3-0.3H367c0.2,0,0.3,0.1,0.3,0.3v0
					C367.3,507,365.6,508.8,363.4,508.8z M345.6,505.1c0.2,1.7,1.6,3,3.3,3h14.5c1.7,0,3.2-1.3,3.3-3H345.6z" style="fill:#3e414e"></path>
        </g>
        <g>
          <path d="M367,499.1h-21.8c-0.2,0-0.3-0.1-0.3-0.3c0-2.2,1.8-3.9,3.9-3.9h14.5c2.2,0,3.9,1.8,3.9,3.9
					C367.3,499,367.2,499.1,367,499.1z M345.6,498.5h21.1c-0.2-1.7-1.6-3-3.3-3h-14.5C347.2,495.5,345.7,496.8,345.6,498.5z" style="fill:#3e414e"></path>
        </g>
      </g>
      <g>
        <g>
          <polyline points="414 496.8 415.7 490.2 417.9 490.7 414.3 503.8" style="fill:#f08680"></polyline>
          <path d="M414.3,504.1C414.3,504.1,414.3,504.1,414.3,504.1c-0.2-0.1-0.3-0.2-0.3-0.4l3.5-12.8l-1.6-0.4l-1.6,6.4
					c0,0.2-0.2,0.3-0.4,0.2c-0.2,0-0.3-0.2-0.2-0.4l1.7-6.7c0-0.1,0.1-0.1,0.1-0.2c0.1,0,0.2-0.1,0.2,0l2.1,0.6
					c0.1,0,0.1,0.1,0.2,0.1c0,0.1,0.1,0.2,0,0.2l-3.5,13.1C414.6,504,414.5,504.1,414.3,504.1z" style="fill:#3e414e"></path>
        </g>
        <g>
          <polyline points="411.8 501.9 411.8 491.9 411.8 489.1 414 489.1 414 496.8 414 500.3" style="fill:#f08680"></polyline>
          <path d="M411.8,502.2c-0.2,0-0.3-0.1-0.3-0.3v-12.8c0-0.2,0.1-0.3,0.3-0.3h2.2c0.2,0,0.3,0.1,0.3,0.3v11.2
					c0,0.2-0.1,0.3-0.3,0.3s-0.3-0.1-0.3-0.3v-10.8h-1.6v12.5C412.1,502,412,502.2,411.8,502.2z" style="fill:#3e414e"></path>
        </g>
        <g>
          <polyline points="409.6 502.5 409.6 491.9 411.8 491.9 411.8 501.9" style="fill:#f08680"></polyline>
          <path d="M409.6,502.8c-0.2,0-0.3-0.1-0.3-0.3v-10.6c0-0.2,0.1-0.3,0.3-0.3h2.2c0.2,0,0.3,0.1,0.3,0.3v9.9
					c0,0.2-0.1,0.3-0.3,0.3s-0.3-0.1-0.3-0.3v-9.6h-1.6v10.3C409.9,502.7,409.8,502.8,409.6,502.8z" style="fill:#3e414e"></path>
        </g>
        <g>
          <polyline points="409.6 502.5 409.6 491.9 409.6 489.1 407.4 489.1 407.4 493.6 407.4 502.5" style="fill:#f08680"></polyline>
          <path d="M409.6,502.8c-0.2,0-0.3-0.1-0.3-0.3v-13.1h-1.6v13.1c0,0.2-0.1,0.3-0.3,0.3s-0.3-0.1-0.3-0.3v-13.4
					c0-0.2,0.1-0.3,0.3-0.3h2.2c0.2,0,0.3,0.1,0.3,0.3v13.4C409.9,502.7,409.8,502.8,409.6,502.8z" style="fill:#3e414e"></path>
        </g>
        <g>
          <polyline points="403 500.3 403 496.9 403 489.1 405.2 489.1 405.2 493.6 405.2 501.9" style="fill:#f08680"></polyline>
          <path d="M405.2,502.2c-0.2,0-0.3-0.1-0.3-0.3v-12.5h-1.6v10.8c0,0.2-0.1,0.3-0.3,0.3s-0.3-0.1-0.3-0.3v-11.2
					c0-0.2,0.1-0.3,0.3-0.3h2.2c0.2,0,0.3,0.1,0.3,0.3v12.8C405.5,502,405.4,502.2,405.2,502.2z" style="fill:#3e414e"></path>
        </g>
        <g>
          <polygon points="403 503.4 399.4 490.6 401.6 490.1 403 496.9" style="fill:#f08680"></polygon>
          <path d="M403,503.7c-0.1,0-0.3-0.1-0.3-0.2l-3.6-12.8c0-0.1,0-0.2,0-0.2c0-0.1,0.1-0.1,0.2-0.1l2.2-0.5
					c0.1,0,0.2,0,0.2,0c0.1,0,0.1,0.1,0.1,0.2l1.4,6.7l0,6.6C403.3,503.6,403.2,503.7,403,503.7C403,503.7,403,503.7,403,503.7z
					 M399.8,490.8l2.9,10.4v-4.4l-1.4-6.4L399.8,490.8z" style="fill:#3e414e"></path>
        </g>
        <g>
          <polyline points="407.4 503.2 407.4 493.6 405.2 493.6 405.2 502.5" style="fill:#f08680"></polyline>
          <path d="M407.4,503.5c-0.2,0-0.3-0.1-0.3-0.3v-9.3h-1.6v8.6c0,0.2-0.1,0.3-0.3,0.3s-0.3-0.1-0.3-0.3v-8.9
					c0-0.2,0.1-0.3,0.3-0.3h2.2c0.2,0,0.3,0.1,0.3,0.3v9.6C407.7,503.4,407.6,503.5,407.4,503.5z" style="fill:#3e414e"></path>
        </g>
        <g>
          <path d="M416.3,494.6c0,4.3-3.5,7.7-7.7,7.7s-7.7-3.5-7.7-7.7h-3.3l2.2,19.9h17.7l2.2-19.9H416.3z" style="fill:#fff"></path>
          <path d="M417.4,514.8h-17.7c-0.2,0-0.3-0.1-0.3-0.3l-2.2-19.9c0-0.1,0-0.2,0.1-0.2c0.1-0.1,0.1-0.1,0.2-0.1h3.3
					c0.2,0,0.3,0.1,0.3,0.3c0,4.1,3.3,7.4,7.4,7.4s7.4-3.3,7.4-7.4c0-0.2,0.1-0.3,0.3-0.3h3.3c0.1,0,0.2,0,0.2,0.1
					c0.1,0.1,0.1,0.2,0.1,0.2l-2.2,19.9C417.6,514.7,417.5,514.8,417.4,514.8z M399.9,514.2h17.2l2.1-19.3h-2.7
					c-0.2,4.3-3.7,7.7-8,7.7s-7.9-3.4-8-7.7h-2.7L399.9,514.2z" style="fill:#3e414e"></path>
        </g>
        <g>
          <polygon points="418 509 411.1 509 406 509 399.1 509 398.8 506.8 406 506.8 411.1 506.8 418.2 506.8" style="fill:#f08680"></polygon>
          <path d="M418,509.3h-18.9c-0.2,0-0.3-0.1-0.3-0.3l-0.2-2.2c0-0.1,0-0.2,0.1-0.2c0.1-0.1,0.1-0.1,0.2-0.1h19.4
					c0.1,0,0.2,0,0.2,0.1c0.1,0.1,0.1,0.1,0.1,0.2l-0.2,2.2C418.3,509.2,418.1,509.3,418,509.3z M399.3,508.7h18.4l0.2-1.6h-18.7
					L399.3,508.7z" style="fill:#3e414e"></path>
        </g>
        <g>
          <g>
            <circle cx="408.5" cy="507.9" r="2.8" style="fill:#9ec9ef"></circle>
          </g>
          <g>
            <path d="M408.5,511c-1.7,0-3.1-1.4-3.1-3.1s1.4-3.1,3.1-3.1s3.1,1.4,3.1,3.1S410.2,511,408.5,511z M408.5,505.4
						c-1.4,0-2.5,1.1-2.5,2.5c0,1.4,1.1,2.5,2.5,2.5c1.4,0,2.5-1.1,2.5-2.5C411,506.5,409.9,505.4,408.5,505.4z" style="fill:#3e414e"></path>
          </g>
        </g>
        <g>
          <path d="M408.5,505.1c-1.1,0-2.1,0.7-2.5,1.6c0.3-0.2,0.7-0.3,1.1-0.3c1.5,0,2.8,1.2,2.8,2.8c0,0.4-0.1,0.8-0.3,1.1
					c1-0.4,1.6-1.4,1.6-2.5C411.3,506.4,410,505.1,408.5,505.1z" style="fill:#77b6e5"></path>
        </g>
        <g>
          <path d="M408.5,511c-1.7,0-3.1-1.4-3.1-3.1s1.4-3.1,3.1-3.1s3.1,1.4,3.1,3.1S410.2,511,408.5,511z M408.5,505.4
					c-1.4,0-2.5,1.1-2.5,2.5c0,1.4,1.1,2.5,2.5,2.5c1.4,0,2.5-1.1,2.5-2.5C411,506.5,409.9,505.4,408.5,505.4z" style="fill:#3e414e"></path>
        </g>
      </g>
      <g>
        <g>
          <path d="M454,497.1c0.2-0.1,0.4-0.1,0.6-0.1c0.7,0,1.4-0.1,2-0.1c1.4-0.1,2.7-0.3,4-0.7c1-0.2,1.9-0.5,2.9-0.9
					c1-0.4,2-0.8,3-1.3c0.9-0.5,1.8-1,2.7-1.6c0.3-0.2,0.6-0.4,0.9-0.6c1.7-1.2,4.1-0.5,4.8,1.4c0.1,0.1,0.1,0.3,0.1,0.4
					c1.9,5.4-1,11.3-6.2,13.7c-0.7,0.3-1.5,0.6-2.2,0.8c-0.1,0-0.2,0.1-0.3,0.1h0" style="fill:#f08680"></path>
          <path d="M466.4,508.5c-0.2,0-0.3-0.1-0.3-0.3s0.1-0.3,0.3-0.3l0.3-0.1c0.7-0.2,1.4-0.4,2.2-0.7
					c5.1-2.3,7.8-8.2,6-13.3l-0.1-0.4c-0.3-0.8-1-1.5-1.9-1.7c-0.9-0.3-1.8-0.1-2.5,0.4c-0.3,0.2-0.6,0.4-0.9,0.6
					c-0.9,0.6-1.8,1.1-2.7,1.6c-1,0.5-2,1-3,1.4c-0.9,0.4-1.9,0.7-2.9,0.9c-1.3,0.3-2.7,0.6-4,0.7c-0.7,0.1-1.4,0.1-2.1,0.1
					c-0.2,0-0.4,0-0.6,0.1c-0.2,0-0.3,0-0.4-0.2c0-0.2,0-0.3,0.2-0.4c0.2-0.1,0.5-0.1,0.7-0.1c0.7,0,1.3,0,2-0.1
					c1.3-0.1,2.6-0.3,3.9-0.7c0.9-0.2,1.9-0.5,2.8-0.9c1-0.4,2-0.8,3-1.3c0.9-0.5,1.8-1,2.6-1.6c0.3-0.2,0.6-0.4,0.9-0.6
					c0.9-0.6,2-0.8,3-0.5c1.1,0.3,1.9,1.1,2.3,2.1l0.1,0.4c1.9,5.4-0.9,11.6-6.3,14.1c-0.8,0.3-1.5,0.6-2.3,0.8L466.4,508.5
					C466.5,508.5,466.4,508.5,466.4,508.5z" style="fill:#3e414e"></path>
        </g>
        <g>
          <path d="M475.1,493.7c-0.1-0.1-0.1-0.3-0.1-0.4c-0.3-0.8-0.8-1.3-1.5-1.7c0.1,0.1,0.1,0.2,0.2,0.4
					c0.1,0.1,0.1,0.3,0.1,0.4c1.9,5.4-1,11.3-6.2,13.7c-0.7,0.3-1.5,0.6-2.2,0.8c-0.1,0-0.2,0.1-0.3,0.1h0l-10.9-9.8
					c0,0-0.1,0-0.1,0l12.4,11h0c0.1,0,0.2-0.1,0.3-0.1c0.7-0.2,1.5-0.4,2.2-0.8C474.2,505,477,499.1,475.1,493.7z" style="fill:#e16d69"></path>
        </g>
        <g>
          <g>
            <path d="M450.6,494.3c4,3.9,8.9,6.3,14.6,7.2c2.1,0.3,3.3,2.5,2.4,4.4c-0.1,0.1-0.1,0.3-0.2,0.4
						c-2.5,5.2-8.7,7.3-14,5.3c-5.4-2-8.3-6.8-7.2-15.9c0.1-0.5,0.3-1,0.6-1.4l0,0C447.9,493.4,449.6,493.3,450.6,494.3z" style="fill:#9ec9ef"></path>
          </g>
          <g>
            <path d="M457.5,512.7c-1.4,0-2.8-0.2-4.2-0.8c-6-2.3-8.4-7.6-7.4-16.2c0.1-0.6,0.3-1.1,0.7-1.5
						c0.5-0.6,1.2-0.9,2-1c0.8,0,1.6,0.3,2.2,0.8l0,0c4,3.9,8.9,6.3,14.5,7.1c1.1,0.2,2,0.8,2.5,1.8c0.5,1,0.6,2.1,0.1,3.1
						c-0.1,0.1-0.1,0.3-0.2,0.4C465.9,510.4,461.8,512.7,457.5,512.7z M448.8,493.9c0,0-0.1,0-0.1,0c-0.6,0-1.2,0.3-1.6,0.8
						c-0.3,0.3-0.5,0.8-0.5,1.2c-1,8.3,1.3,13.4,7,15.5c5.3,2,11.3-0.3,13.7-5.1c0.1-0.1,0.1-0.3,0.2-0.4c0.4-0.8,0.3-1.8-0.1-2.6
						c-0.4-0.8-1.2-1.3-2.1-1.5c-5.7-0.9-10.7-3.4-14.8-7.3C450,494.1,449.4,493.9,448.8,493.9z" style="fill:#3e414e"></path>
          </g>
        </g>
        <g>
          <path d="M454.7,510.4c-5.4-2-8.3-6.8-7.2-15.9c0-0.3,0.1-0.5,0.2-0.7c-0.3,0.1-0.6,0.4-0.9,0.6l0,0
					c-0.3,0.4-0.6,0.9-0.6,1.4c-1.1,9.1,1.8,13.8,7.2,15.9c4.5,1.7,9.7,0.4,12.6-3.1C463.1,511.1,458.7,511.9,454.7,510.4z" style="fill:#77b6e5"></path>
        </g>
        <g>
          <path d="M446,499.7c-0.1,0-0.3-0.1-0.3-0.3c0-0.2,0.1-0.3,0.3-0.3c0,0,4.1-0.6,5.9-3.5c0.1-0.1,0.3-0.2,0.4-0.1
					c0.1,0.1,0.2,0.3,0.1,0.4C450.5,499,446.3,499.6,446,499.7C446.1,499.7,446.1,499.7,446,499.7z" style="fill:#f4f4f4"></path>
        </g>
        <g>
          <path d="M446.3,503.3c-0.2,0-0.3-0.1-0.3-0.3c0-0.2,0.1-0.3,0.3-0.3c0.1,0,5.8-0.5,8.9-4.8c0.1-0.1,0.3-0.2,0.4-0.1
					c0.1,0.1,0.2,0.3,0.1,0.4C452.4,502.8,446.6,503.3,446.3,503.3C446.4,503.3,446.4,503.3,446.3,503.3z" style="fill:#f4f4f4"></path>
        </g>
        <g>
          <path d="M448,507.7c-0.1,0-0.3-0.1-0.3-0.2c0-0.2,0.1-0.3,0.2-0.4c7.4-1.4,9.9-7.7,9.9-7.7c0.1-0.2,0.2-0.2,0.4-0.2
					c0.2,0.1,0.2,0.2,0.2,0.4C458.4,499.6,455.8,506.1,448,507.7C448,507.6,448,507.7,448,507.7z" style="fill:#f4f4f4"></path>
        </g>
        <g>
          <path d="M451.3,511c-0.1,0-0.3-0.1-0.3-0.2c0-0.2,0.1-0.3,0.2-0.4c7.5-1.6,9.6-9.8,9.6-9.8c0-0.2,0.2-0.3,0.4-0.2
					c0.2,0,0.3,0.2,0.2,0.4C461.5,500.8,459.3,509.3,451.3,511C451.4,511,451.4,511,451.3,511z" style="fill:#f4f4f4"></path>
        </g>
        <g>
          <path d="M458.1,512.7c-0.1,0-0.2,0-0.2-0.1c-0.1-0.1-0.1-0.3,0.1-0.4c5.6-4.1,6-10.7,6-10.8c0-0.2,0.2-0.3,0.3-0.3
					c0.2,0,0.3,0.1,0.3,0.3c0,0.1-0.4,7-6.2,11.2C458.2,512.7,458.2,512.7,458.1,512.7z" style="fill:#f4f4f4"></path>
        </g>
        <g>
          <path d="M456.9,499.1C456.9,499.1,456.9,499.1,456.9,499.1c-0.2,0-0.3-0.2-0.3-0.3c0-0.6,0-1.2-0.1-1.8
					c0-0.2,0.1-0.3,0.2-0.4c0.2,0,0.3,0.1,0.4,0.2c0.2,0.6,0.2,1.3,0.2,2C457.2,499,457,499.1,456.9,499.1z" style="fill:#f4f4f4"></path>
        </g>
        <g>
          <path d="M460.6,500.7C460.5,500.7,460.5,500.7,460.6,500.7c-0.2,0-0.3-0.2-0.3-0.4c0.3-1.4,0.4-2.7,0.1-4
					c0-0.2,0.1-0.3,0.2-0.3c0.2,0,0.3,0.1,0.3,0.2c0.2,1.4,0.2,2.8-0.1,4.3C460.8,500.6,460.7,500.7,460.6,500.7z" style="fill:#f4f4f4"></path>
        </g>
        <g>
          <path d="M464.4,501.7C464.4,501.7,464.4,501.7,464.4,501.7c-0.2,0-0.3-0.2-0.3-0.3c0.3-3.4-0.8-5.9-0.8-5.9
					c-0.1-0.2,0-0.3,0.2-0.4c0.2-0.1,0.3,0,0.4,0.2c0,0.1,1.1,2.6,0.8,6.2C464.7,501.6,464.5,501.7,464.4,501.7z" style="fill:#f4f4f4"></path>
        </g>
        <g>
          <path d="M466.7,508.4c-0.1,0-0.1,0-0.2,0c-0.1-0.1-0.2-0.3-0.1-0.4c4.2-6.5-0.1-13.7-0.2-13.7
					c-0.1-0.1,0-0.3,0.1-0.4c0.1-0.1,0.3,0,0.4,0.1c0,0.1,4.6,7.6,0.2,14.4C466.9,508.3,466.8,508.4,466.7,508.4z" style="fill:#f4f4f4"></path>
        </g>
        <g>
          <path d="M472.7,504.8C472.7,504.8,472.7,504.8,472.7,504.8c-0.2,0-0.3-0.2-0.3-0.3c1.1-6.8-3.3-11.8-3.4-11.8
					c-0.1-0.1-0.1-0.3,0-0.4c0.1-0.1,0.3-0.1,0.4,0c0,0.1,4.7,5.2,3.5,12.3C473,504.7,472.8,504.8,472.7,504.8z" style="fill:#f4f4f4"></path>
        </g>
        <g>
          <path d="M457.5,512.7c-1.4,0-2.8-0.2-4.2-0.8c-6-2.3-8.4-7.6-7.4-16.2c0.1-0.6,0.3-1.1,0.7-1.5c0.5-0.6,1.2-0.9,2-1
					c0.8,0,1.6,0.3,2.2,0.8l0,0c4,3.9,8.9,6.3,14.5,7.1c1.1,0.2,2,0.8,2.5,1.8c0.5,1,0.6,2.1,0.1,3.1c-0.1,0.1-0.1,0.3-0.2,0.4
					C465.9,510.4,461.8,512.7,457.5,512.7z M448.8,493.9c0,0-0.1,0-0.1,0c-0.6,0-1.2,0.3-1.6,0.8c-0.3,0.3-0.5,0.8-0.5,1.2
					c-1,8.3,1.3,13.4,7,15.5c5.3,2,11.3-0.3,13.7-5.1c0.1-0.1,0.1-0.3,0.2-0.4c0.4-0.8,0.3-1.8-0.1-2.6c-0.4-0.8-1.2-1.3-2.1-1.5
					c-5.7-0.9-10.7-3.4-14.8-7.3C450,494.1,449.4,493.9,448.8,493.9z" style="fill:#3e414e"></path>
        </g>
        <g>
          <path d="M466.4,508.5c-0.2,0-0.3-0.1-0.3-0.3s0.1-0.3,0.3-0.3l0.3-0.1c0.7-0.2,1.4-0.4,2.2-0.7
					c5.1-2.3,7.8-8.2,6-13.3l-0.1-0.4c-0.3-0.8-1-1.5-1.9-1.7c-0.9-0.3-1.8-0.1-2.5,0.4c-0.3,0.2-0.6,0.4-0.9,0.6
					c-0.9,0.6-1.8,1.1-2.7,1.6c-1,0.5-2,1-3,1.4c-0.9,0.4-1.9,0.7-2.9,0.9c-1.3,0.3-2.7,0.6-4,0.7c-0.7,0.1-1.4,0.1-2.1,0.1
					c-0.2,0-0.4,0-0.6,0.1c-0.2,0-0.3,0-0.4-0.2c0-0.2,0-0.3,0.2-0.4c0.2-0.1,0.5-0.1,0.7-0.1c0.7,0,1.3,0,2-0.1
					c1.3-0.1,2.6-0.3,3.9-0.7c0.9-0.2,1.9-0.5,2.8-0.9c1-0.4,2-0.8,3-1.3c0.9-0.5,1.8-1,2.6-1.6c0.3-0.2,0.6-0.4,0.9-0.6
					c0.9-0.6,2-0.8,3-0.5c1.1,0.3,1.9,1.1,2.3,2.1l0.1,0.4c1.9,5.4-0.9,11.6-6.3,14.1c-0.8,0.3-1.5,0.6-2.3,0.8L466.4,508.5
					C466.5,508.5,466.4,508.5,466.4,508.5z" style="fill:#3e414e"></path>
        </g>
      </g>
      <g>
        <g>
          <polygon points="230.3 339.2 189.3 311 222.7 348.5" style="fill:#fff"></polygon>
          <path d="M222.7,348.8c-0.1,0-0.2,0-0.2-0.1l-33.4-37.6c-0.1-0.1-0.1-0.3,0-0.4s0.3-0.1,0.4,0l41,28.2
					c0.1,0,0.1,0.1,0.1,0.2c0,0.1,0,0.2-0.1,0.2l-7.7,9.4C222.9,348.8,222.8,348.8,222.7,348.8C222.7,348.8,222.7,348.8,222.7,348.8
					z M191.2,312.6l31.5,35.4l7.2-8.9L191.2,312.6z" style="fill:#3e414e"></path>
        </g>
        <g>
          <g>
            <polygon points="222.7 348.5 215.4 351.3 189.3 311" style="fill:#9ec9ef"></polygon>
          </g>
          <g>
            <path d="M215.4,351.6c-0.1,0-0.2,0-0.3-0.1l-26.1-40.3c-0.1-0.1-0.1-0.3,0.1-0.4c0.1-0.1,0.3-0.1,0.4,0l33.4,37.6
						c0.1,0.1,0.1,0.2,0.1,0.3c0,0.1-0.1,0.2-0.2,0.2l-7.3,2.7C215.5,351.6,215.4,351.6,215.4,351.6z M191.7,314.2l23.8,36.7
						l6.6-2.5L191.7,314.2z" style="fill:#3e414e"></path>
          </g>
        </g>
        <g>
          <polygon points="189.3 311 219.5 357.6 219.5 380.9" style="fill:#fff"></polygon>
          <path d="M219.5,381.2c-0.1,0-0.2-0.1-0.3-0.2L189,311.1c-0.1-0.1,0-0.3,0.1-0.4c0.1-0.1,0.3,0,0.4,0.1l30.2,46.6
					c0,0,0,0.1,0,0.2v23.3C219.8,381.1,219.7,381.2,219.5,381.2C219.5,381.2,219.5,381.2,219.5,381.2z M191,314.2l28.1,65.3v-21.8
					L191,314.2z" style="fill:#3e414e"></path>
        </g>
        <g>
          <g>
            <polygon points="211.6 362.6 201.9 362.6 189.3 311" style="fill:#9ec9ef"></polygon>
          </g>
          <g>
            <path d="M211.6,362.9h-9.6c-0.1,0-0.3-0.1-0.3-0.2L189,311.1c0-0.2,0-0.3,0.2-0.4c0.1,0,0.3,0,0.4,0.2l22.2,51.6
						c0,0.1,0,0.2,0,0.3C211.8,362.8,211.7,362.9,211.6,362.9z M202.2,362.3h8.9l-20.6-47.9L202.2,362.3z" style="fill:#3e414e"></path>
          </g>
        </g>
      </g>
      <g>
        <path d="M250.4,420.1c-0.2,0-0.3-0.1-0.3-0.3c0-0.2,0.1-0.3,0.3-0.3c1.8-0.1,3.7-0.5,5.7-1.3
				c0.4-0.2,0.8-0.3,1.2-0.5c0.1-0.1,0.3,0,0.4,0.2c0.1,0.2,0,0.3-0.2,0.4c-0.4,0.2-0.8,0.4-1.2,0.5
				C254.3,419.5,252.3,420,250.4,420.1C250.4,420.1,250.4,420.1,250.4,420.1z M243.6,418.1c-0.1,0-0.1,0-0.2-0.1
				c-1.8-1.2-3.5-3-5-5.3c-0.1-0.1-0.1-0.3,0.1-0.4c0.1-0.1,0.3-0.1,0.4,0.1c1.5,2.2,3.1,4,4.8,5.1c0.1,0.1,0.2,0.3,0.1,0.4
				C243.8,418,243.7,418.1,243.6,418.1z M263.7,414.6c-0.1,0-0.2,0-0.2-0.1c-0.1-0.1-0.1-0.3,0.1-0.4c2-1.4,3.8-3,5.3-4.8
				c0.1-0.1,0.3-0.1,0.4,0c0.1,0.1,0.1,0.3,0,0.4c-1.6,1.8-3.3,3.4-5.4,4.9C263.8,414.6,263.7,414.6,263.7,414.6z M235.4,406.4
				c-0.1,0-0.2-0.1-0.3-0.2c-0.8-2.1-1.6-4.4-2.3-6.9c0-0.2,0.1-0.3,0.2-0.4c0.2,0,0.3,0.1,0.4,0.2c0.7,2.5,1.4,4.8,2.3,6.9
				c0.1,0.2,0,0.3-0.2,0.4C235.5,406.4,235.4,406.4,235.4,406.4z M273,403.8c0,0-0.1,0-0.1,0c-0.1-0.1-0.2-0.3-0.1-0.4
				c1.1-2.2,2-4.5,2.8-6.6c0.1-0.2,0.2-0.2,0.4-0.2c0.2,0.1,0.2,0.2,0.2,0.4c-0.8,2.2-1.7,4.5-2.8,6.7
				C273.3,403.7,273.2,403.8,273,403.8z M231.5,392.4c-0.1,0-0.3-0.1-0.3-0.2c-0.4-2.3-0.8-4.7-1.2-7.2c0-0.2,0.1-0.3,0.3-0.3
				c0.2,0,0.3,0.1,0.3,0.3c0.3,2.5,0.7,4.9,1.2,7.2C231.8,392.2,231.7,392.4,231.5,392.4C231.6,392.4,231.5,392.4,231.5,392.4z
				 M278.5,390.3c0,0-0.1,0-0.1,0c-0.2-0.1-0.2-0.2-0.2-0.4c1.2-2.6,2.4-4.5,3.9-6.2c0.1-0.1,0.3-0.1,0.4,0c0.1,0.1,0.1,0.3,0,0.4
				c-1.5,1.6-2.7,3.5-3.8,6C278.7,390.3,278.6,390.3,278.5,390.3z M288.2,380.1c-0.1,0-0.2-0.1-0.3-0.2c-0.1-0.2,0-0.3,0.2-0.4
				c2-0.9,4.3-1.5,7-2c0.2,0,0.3,0.1,0.3,0.3c0,0.2-0.1,0.3-0.3,0.3c-2.6,0.4-4.9,1.1-6.9,1.9C288.3,380.1,288.3,380.1,288.2,380.1z
				 M229.5,378c-0.2,0-0.3-0.1-0.3-0.3c-0.2-2.3-0.4-4.8-0.6-7.3c0-0.2,0.1-0.3,0.3-0.3c0.2,0,0.3,0.1,0.3,0.3
				c0.1,2.5,0.3,4.9,0.6,7.2C229.8,377.8,229.7,378,229.5,378C229.5,378,229.5,378,229.5,378z M228.7,363.5c-0.2,0-0.3-0.1-0.3-0.3
				c0-1.9-0.1-3.7-0.1-5.3c0-1.3,0-1.9,0-1.9c0-0.2,0.2-0.3,0.3-0.3c0.2,0,0.3,0.1,0.3,0.3c0,0,0,0.7,0,1.9c0,1.7,0,3.5,0.1,5.3
				C229,363.3,228.8,363.5,228.7,363.5C228.7,363.5,228.7,363.5,228.7,363.5z" style="fill:#e1e4e1"></path>
      </g>
      <g>
        <g>
          <g>
            <path d="M215.9,254.9v42.8c0,1.9,1.6,3.5,3.5,3.5h45.4l17.5,14.4v-14.4h6c1.9,0,3.5-1.6,3.5-3.5v-42.8
						c0-1.9-1.6-3.5-3.5-3.5h-69C217.5,251.4,215.9,252.9,215.9,254.9z" style="fill:#fff"></path>
            <path d="M282.4,315.9c-0.1,0-0.1,0-0.2-0.1l-17.5-14.3h-45.3c-2.1,0-3.8-1.7-3.8-3.8v-42.8c0-2.1,1.7-3.8,3.8-3.8
						h69c2.1,0,3.8,1.7,3.8,3.8v42.8c0,2.1-1.7,3.8-3.8,3.8h-5.7v14.1c0,0.1-0.1,0.2-0.2,0.3C282.5,315.9,282.5,315.9,282.4,315.9z
						 M219.5,251.7c-1.8,0-3.2,1.4-3.2,3.2v42.8c0,1.8,1.4,3.2,3.2,3.2h45.4c0.1,0,0.1,0,0.2,0.1l17,14v-13.7c0-0.2,0.1-0.3,0.3-0.3
						h6c1.8,0,3.2-1.4,3.2-3.2v-42.8c0-1.8-1.4-3.2-3.2-3.2H219.5z" style="fill:#3e414e"></path>
          </g>
          <g>
            <rect width="63.5" height="37.1" x="221.9" y="257.1" style="fill:#9ec9ef"></rect>
          </g>
          <g>
            <polygon points="283.1 257.1 283.1 291.8 221.9 291.8 221.9 294.2 285.4 294.2 285.4 257.1" style="fill:#77b6e5"></polygon>
          </g>
        </g>
        <g>
          <path d="M247.3 268.5c0 2.3-1.4 3.6-3.1 3.6-1.8 0-3-1.4-3-3.4 0-2.1 1.3-3.6 3.1-3.6C246.1 265.1 247.3 266.5 247.3 268.5zM242 268.6c0 1.4.8 2.7 2.2 2.7 1.4 0 2.2-1.3 2.2-2.8 0-1.3-.7-2.8-2.2-2.8C242.7 265.8 242 267.1 242 268.6zM248.4 268.6c0-.6 0-1.1 0-1.5h.8l0 1h0c.2-.7.8-1.1 1.3-1.1.1 0 .2 0 .3 0v.8c-.1 0-.2 0-.3 0-.6 0-1.1.5-1.2 1.1 0 .1 0 .3 0 .4v2.6h-.9V268.6zM255.7 264.8v5.9c0 .4 0 .9 0 1.3H255l0-.8h0c-.3.5-.9 1-1.7 1-1.2 0-2.1-1-2.1-2.5 0-1.6 1-2.6 2.2-2.6.7 0 1.2.4 1.5.7h0v-2.9H255.7zM254.9 269.1c0-.1 0-.3 0-.4-.1-.6-.6-1-1.3-1-.9 0-1.5.8-1.5 1.9 0 1 .5 1.8 1.4 1.8.6 0 1.1-.4 1.3-1.1 0-.1 0-.2 0-.4V269.1zM257.7 269.7c0 1.2.8 1.7 1.7 1.7.6 0 1-.1 1.3-.3l.2.6c-.3.1-.8.3-1.6.3-1.5 0-2.4-1-2.4-2.5s.9-2.6 2.3-2.6c1.6 0 2 1.4 2 2.3 0 .2 0 .3 0 .4H257.7zM260.3 269c0-.6-.2-1.4-1.2-1.4-.9 0-1.3.8-1.4 1.4H260.3zM262.2 268.6c0-.6 0-1.1 0-1.5h.8l0 1h0c.2-.7.8-1.1 1.3-1.1.1 0 .2 0 .3 0v.8c-.1 0-.2 0-.3 0-.6 0-1.1.5-1.2 1.1 0 .1 0 .3 0 .4v2.6h-.9V268.6zM230.7 282.9c.4.2 1 .4 1.6.4.9 0 1.4-.5 1.4-1.2 0-.6-.4-1-1.3-1.3-1.1-.4-1.8-1-1.8-1.9 0-1.1.9-1.8 2.2-1.8.7 0 1.2.2 1.5.3l-.2.7c-.2-.1-.7-.3-1.3-.3-.9 0-1.3.6-1.3 1 0 .6.4.9 1.3 1.3 1.1.4 1.7 1 1.7 2 0 1-.8 1.9-2.4 1.9-.7 0-1.4-.2-1.7-.4L230.7 282.9zM239.8 282.7c0 .5 0 .9 0 1.3h-.8l-.1-.8h0c-.2.4-.7.9-1.6.9-.8 0-1.7-.4-1.7-2.1v-2.8h.9v2.7c0 .9.3 1.5 1.1 1.5.6 0 1-.4 1.2-.8 0-.1.1-.3.1-.5v-3h.9V282.7zM244.8 283.8c-.2.1-.7.3-1.4.3-1.5 0-2.4-1-2.4-2.5 0-1.5 1-2.6 2.6-2.6.5 0 1 .1 1.2.3l-.2.7c-.2-.1-.5-.2-1-.2-1.1 0-1.7.8-1.7 1.8 0 1.1.7 1.8 1.7 1.8.5 0 .8-.1 1.1-.2L244.8 283.8zM249.2 283.8c-.2.1-.7.3-1.4.3-1.5 0-2.4-1-2.4-2.5 0-1.5 1-2.6 2.6-2.6.5 0 1 .1 1.2.3L249 280c-.2-.1-.5-.2-1-.2-1.1 0-1.7.8-1.7 1.8 0 1.1.7 1.8 1.7 1.8.5 0 .8-.1 1.1-.2L249.2 283.8zM250.7 281.7c0 1.2.8 1.7 1.7 1.7.6 0 1-.1 1.3-.3l.2.6c-.3.1-.8.3-1.6.3-1.5 0-2.4-1-2.4-2.5 0-1.5.9-2.6 2.3-2.6 1.6 0 2 1.4 2 2.3 0 .2 0 .3 0 .4H250.7zM253.2 281.1c0-.6-.2-1.4-1.2-1.4-.9 0-1.3.8-1.4 1.4H253.2zM255.1 283.1c.3.2.7.4 1.2.4.6 0 .9-.3.9-.7 0-.4-.3-.7-.9-.9-.9-.3-1.3-.8-1.3-1.4 0-.8.6-1.4 1.7-1.4.5 0 .9.1 1.2.3l-.2.6c-.2-.1-.5-.3-1-.3-.5 0-.8.3-.8.7 0 .4.3.6.9.8.8.3 1.3.7 1.3 1.5 0 .9-.7 1.5-1.8 1.5-.5 0-1-.1-1.4-.3L255.1 283.1zM259 283.1c.3.2.7.4 1.2.4.6 0 .9-.3.9-.7 0-.4-.3-.7-.9-.9-.9-.3-1.3-.8-1.3-1.4 0-.8.6-1.4 1.7-1.4.5 0 .9.1 1.2.3l-.2.6c-.2-.1-.5-.3-1-.3-.5 0-.8.3-.8.7 0 .4.3.6.9.8.8.3 1.3.7 1.3 1.5 0 .9-.7 1.5-1.8 1.5-.5 0-1-.1-1.4-.3L259 283.1zM263.2 284v-4.2h-.7v-.7h.7v-.2c0-.7.2-1.3.6-1.7.3-.3.8-.5 1.2-.5.3 0 .6.1.8.1l-.1.7c-.1-.1-.3-.1-.6-.1-.8 0-.9.7-.9 1.4v.3h1.2v.7h-1.2v4.2H263.2zM270.1 282.7c0 .5 0 .9 0 1.3h-.8l0-.8h0c-.2.4-.7.9-1.6.9-.8 0-1.7-.4-1.7-2.1v-2.8h.9v2.7c0 .9.3 1.5 1.1 1.5.6 0 1-.4 1.2-.8.1-.1.1-.3.1-.5v-3h.9V282.7zM271.6 276.9h.9v7.1h-.9V276.9zM274 276.9h.9v7.1H274V276.9z" style="fill:#fff"></path>
        </g>
      </g>
    </g>
  </g>
</svg>
